<?xml version="1.0" standalone="no"?>
<!DOCTYPE svg PUBLIC "-//W3C//DTD SVG 1.1//EN" "http://www.w3.org/Graphics/SVG/1.1/DTD/svg11.dtd" >
<svg xmlns="http://www.w3.org/2000/svg">
<metadata>
Created by FontPrep 20130207 at Sat Mar  8 11:27:40 2014
 By Yosuke Hasumi
Copyright (c) 2011, Pablo Impallari (www.impallari.com|impallari@gmail.com),Copyright (c) 2011, Igino Marini. (www.ikern.com|mail@iginomarini.com),Copyright (c) 2011, Brenda Gallo. (gbrenda1987@gmail.com),with Reserved Font Name Quattrocento Sans.
</metadata>
<defs>
<font id="5d1c5c0bbfd71bf708bafeb228fe5ced" horiz-adv-x='1024' >
  <font-face 
    font-family="QuattrocentoSans"
    font-weight="400"
    font-stretch="normal"
    units-per-em="2048"
    panose-1="2 11 5 2 5 0 0 2 0 3"
    ascent="1638"
    descent="-410"
    x-height="942"
    cap-height="1352"
    bbox="-88 -532 2341 1737"
    underline-thickness="98"
    underline-position="-96"
    unicode-range="U+000D-FB02"
  />
<missing-glyph horiz-adv-x="544" 
d="M133 496q0 57 40 100t98 43t99.5 -44t41.5 -100t-43 -95.5t-99 -39.5t-96.5 39.5t-40.5 96.5z" />
    <glyph glyph-name="fi" unicode="fi" horiz-adv-x="1071" 
d="M915 0h-143v942h143v-942zM209 846h-158v76l158 18q0 357 98 485q47 66 101 83.5t132 17.5q133 0 298 -103l-70 -123q-92 57 -156 88t-116 31t-78.5 -19.5t-46 -77.5t-19.5 -257v-123h221v-96h-221v-846h-143v846z" />
    <glyph glyph-name="fl" unicode="fl" horiz-adv-x="1099" 
d="M500 1419q-148 0 -148 -354v-123h221v-96h-221v-846h-143v846h-158v76l158 18q0 355 125 485q87 101 205 101q173 0 317 -53l72 43v-1516h-144v1362q-112 57 -284 57z" />
    <glyph glyph-name=".notdef" horiz-adv-x="544" 
d="M133 496q0 57 40 100t98 43t99.5 -44t41.5 -100t-43 -95.5t-99 -39.5t-96.5 39.5t-40.5 96.5z" />
    <glyph glyph-name=".null" horiz-adv-x="0" 
 />
    <glyph glyph-name="nonmarkingreturn" unicode="&#xd;" horiz-adv-x="501" 
 />
    <glyph glyph-name="NULL" horiz-adv-x="0" 
 />
    <glyph glyph-name="NULL" horiz-adv-x="0" 
 />
    <glyph glyph-name="space" unicode=" " horiz-adv-x="501" 
 />
    <glyph glyph-name="exclam" unicode="!" horiz-adv-x="528" 
d="M215 307l-49 1090h199l-54 -1090h-96zM170 72q0 39 27.5 68.5t66.5 29.5t68.5 -29.5t29.5 -68.5t-29.5 -67t-68.5 -28t-66.5 28t-27.5 67z" />
    <glyph glyph-name="quotedbl" unicode="&#x22;" horiz-adv-x="684" 
d="M444 1057l-43 442h166l-49 -442h-74zM164 1057l-43 442h166l-49 -442h-74z" />
    <glyph glyph-name="numbersign" unicode="#" horiz-adv-x="1257" 
d="M469 563h258l53 244h-258zM934 913h248l-21 -106h-250l-53 -244h262l-20 -108h-264l-97 -455h-131l97 455h-259l-96 -455h-131l96 455h-237l20 108h240l53 244h-252l21 106h254l90 426h131l-90 -426h258l90 426h131z" />
    <glyph glyph-name="dollar" unicode="$" horiz-adv-x="1083" 
d="M270 1026q0 -112 82 -150t140 -59v406q-222 -21 -222 -197zM844 318q0 111 -64.5 174.5t-165.5 103.5v-479q123 16 176.5 74.5t53.5 126.5zM1001 362q0 -181 -106 -272.5t-281 -109.5v-177h-122v174q-221 7 -404 111l43 150q74 -51 154 -87t207 -40v530
q-192 65 -281.5 147t-89.5 232q0 236 145.5 284t225.5 54v178h122v-176q177 -12 310 -76l-43 -158q-93 82 -267 97v-449q186 -65 253 -122.5t100.5 -125.5t33.5 -164z" />
    <glyph glyph-name="percent" unicode="%" horiz-adv-x="1675" 
d="M1294 653q-182 0 -182 -280q0 -147 47 -221t133 -74q145 0 170 113.5t25 173.5q0 129 -47 208.5t-146 79.5zM1518.5 636.5q80.5 -108.5 80.5 -266.5q0 -159 -82 -271.5t-224 -112.5t-219 106t-77 271t81.5 273.5t220.5 108.5t219.5 -108.5zM428 -49h-133l948 1464h133z
M377 1270q-182 0 -182 -281q0 -147 47 -221t139 -74t140 80t48 208t-47 208t-145 80zM600.5 1252.5q81.5 -109.5 81.5 -267.5t-83 -270.5t-225 -112.5q-141 0 -217.5 107t-76.5 270q0 164 81.5 273.5t219.5 109.5t219.5 -109.5z" />
    <glyph glyph-name="ampersand" unicode="&#x26;" horiz-adv-x="1435" 
d="M285 396q0 -83 52.5 -184t296.5 -101q168 0 286 116l-426 437q-96 -33 -152.5 -109t-56.5 -159zM403 758q-124 147 -124 292q0 151 86.5 231.5t221.5 80.5t279 -90l-41 -146q-47 45 -113 74t-130 29t-112 -42t-48 -125t26.5 -138.5t77.5 -108.5l467 -483q33 78 33 175
t-68 204l-102 -9v97l514 75v-126l-274 -25q63 -117 63 -246t-69 -246l225 -231h-172l-131 133q-158 -158 -396 -158t-362.5 113t-124.5 272q0 116 70 228t204 170z" />
    <glyph glyph-name="quotesingle" unicode="'" horiz-adv-x="403" 
d="M164 1057l-43 442h166l-49 -442h-74z" />
    <glyph glyph-name="parenleft" unicode="(" horiz-adv-x="636" 
d="M287 696q0 -110 16.5 -350.5t288.5 -558.5l-76 -27q-197 176 -305.5 412t-108.5 498t108.5 495.5t305.5 413.5l78 -27q-244 -273 -275.5 -509.5t-31.5 -346.5z" />
    <glyph glyph-name="parenright" unicode=")" horiz-adv-x="636" 
d="M535 670q0 -262 -109 -497.5t-305 -412.5l-76 27q272 321 288.5 560t16.5 349q0 253 -71 462t-236 394l78 27q197 -180 305.5 -413.5t108.5 -495.5z" />
    <glyph glyph-name="asterisk" unicode="*" horiz-adv-x="899" 
d="M485 1163l222 166l67 -119l-252 -110l252 -109l-65 -117l-224 162l31 -270h-133l29 270l-222 -162l-65 117l252 109l-252 110l68 119l219 -166l-29 275h135z" />
    <glyph glyph-name="plus" unicode="+" horiz-adv-x="1017" 
d="M561 543h352v-107h-352v-352h-106v352h-351v107h351v331h106v-331z" />
    <glyph glyph-name="comma" unicode="," horiz-adv-x="497" 
d="M168 -10v184h162v-215l-150 -158l-41 39l80 150h-51z" />
    <glyph glyph-name="hyphen" unicode="-" horiz-adv-x="995" 
d="M844 543v-107h-692v107h692z" />
    <glyph glyph-name="period" unicode="." horiz-adv-x="481" 
d="M145 72q0 39 27 68.5t67 29.5t69.5 -29.5t29.5 -68.5t-29.5 -67t-69.5 -28t-67 28t-27 67z" />
    <glyph glyph-name="slash" unicode="/" horiz-adv-x="868" 
d="M227 -117h-153l569 1555h154z" />
    <glyph glyph-name="zero" unicode="0" horiz-adv-x="1329" 
d="M1042 668q0 395 -143 477t-241 82q-368 0 -367 -562q0 -268 95 -411t279 -143t280.5 154.5t96.5 402.5zM1063.5 1163.5q146.5 -198.5 146.5 -487.5t-150 -495t-407 -206t-394.5 197.5t-137.5 492.5t147 496t398 201t397.5 -198.5z" />
    <glyph glyph-name="one" unicode="1" horiz-adv-x="649" 
d="M446 0h-153v1077l-197 -94l-45 143l395 226v-1352z" />
    <glyph glyph-name="two" unicode="2" horiz-adv-x="1042" 
d="M115 1262q195 100 385 100t300.5 -91t110.5 -241q0 -115 -63.5 -225.5t-158.5 -220t-207.5 -220t-211.5 -221.5h656v-143h-830v143q92 119 205 232.5t211 222.5t163.5 215.5t65.5 214.5q0 199 -231 199q-144 0 -237 -40t-121 -61z" />
    <glyph glyph-name="three" unicode="3" horiz-adv-x="1095" 
d="M809 412q0 117 -79 185.5t-265 68.5h-55v116h63q129 0 199.5 65t70.5 167t-49 157.5t-180 55.5t-213 -40t-106 -61l-37 136q175 100 355 100q179 0 289.5 -89t110.5 -263q0 -86 -56 -159t-138 -116q260 -87 260 -340q0 -182 -131.5 -301t-367.5 -119t-404 127l41 138
q157 -129 338 -129q354 0 354 301z" />
    <glyph glyph-name="four" unicode="4" horiz-adv-x="1040" 
d="M645 573v555l-407 -555h407zM940 430h-141v-430h-154v430h-582v143l572 779h164v-779h141v-143z" />
    <glyph glyph-name="five" unicode="5" horiz-adv-x="1101" 
d="M474 670q-126 0 -257 -52l-59 31l75 713h695v-143h-566l-53 -437q148 33 251 33q202 0 319.5 -102t117.5 -291q0 -190 -130.5 -318.5t-366.5 -128.5t-404 127l43 144q76 -59 159.5 -97t219.5 -38t223.5 76.5t87.5 213.5t-53 184.5t-114.5 66t-187.5 18.5z" />
    <glyph glyph-name="six" unicode="6" horiz-adv-x="1128" 
d="M866 408q0 197 -93 242.5t-167 45.5q-154 0 -225.5 -86t-71.5 -218t74 -212t205 -80t204.5 81.5t73.5 226.5zM281 670q84 151 323 151q240 0 331 -131.5t91 -293.5t-109 -291.5t-325 -129.5q-360 0 -411.5 246t-51.5 389q0 328 118 539t390 211q142 0 217.5 -35
t106.5 -63l-35 -136q-124 101 -287 101q-196 0 -281.5 -144.5t-85.5 -351.5v-21q0 -22 2 -38z" />
    <glyph glyph-name="seven" unicode="7" horiz-adv-x="935" 
d="M162 24v56q0 237 173.5 556.5t405.5 582.5h-659v143h829v-143q-213 -213 -392 -561.5t-179 -575.5v-32q0 -32 2 -50h-178q-2 18 -2 24z" />
    <glyph glyph-name="eight" unicode="8" horiz-adv-x="1142" 
d="M788 1018q0 94 -48 154.5t-170 60.5t-171 -58.5t-49 -154.5t56.5 -160.5t163 -64.5t162.5 64.5t56 158.5zM854 371q0 203 -104.5 252t-181.5 49q-144 0 -213.5 -86t-69.5 -215t72.5 -200t212 -71t212 71t72.5 200zM1024 385q0 -284 -169 -347t-289 -63
q-228 0 -337.5 116.5t-109.5 270.5t65.5 248.5t182.5 128.5v9q-72 27 -126.5 100.5t-54.5 185.5q0 147 100.5 237.5t282.5 90.5t284.5 -87t102.5 -235q0 -109 -52 -183.5t-128 -106.5v-9q119 -27 183.5 -123t64.5 -233z" />
    <glyph glyph-name="nine" unicode="9" horiz-adv-x="1130" 
d="M264 928q0 -198 93.5 -243.5t166.5 -45.5q154 0 225.5 86t71.5 218t-73.5 212t-204.5 80t-205 -81t-74 -226zM850 666q-84 -152 -324 -152t-331 131.5t-91 292.5t108.5 291.5t326.5 130.5q359 0 410.5 -247t51.5 -389q0 -326 -117.5 -537.5t-389.5 -211.5
q-142 0 -217.5 35t-106.5 64l35 135q123 -100 287 -100q195 0 280.5 144t85.5 351v22q0 21 -2 38z" />
    <glyph glyph-name="colon" unicode=":" horiz-adv-x="495" 
d="M152 835q0 40 26.5 68.5t66.5 28.5t69.5 -29t29.5 -69t-29.5 -67.5t-69.5 -27.5t-66.5 28t-26.5 68zM152 72q0 39 26.5 68.5t66.5 29.5t69.5 -29.5t29.5 -68.5t-29.5 -67t-69.5 -28t-66.5 28t-26.5 67z" />
    <glyph glyph-name="semicolon" unicode=";" horiz-adv-x="520" 
d="M182 -10v184h162v-215l-149 -158l-41 39l79 150h-51zM170 835q0 40 26.5 68.5t66.5 28.5t69.5 -29t29.5 -69t-29.5 -67.5t-69.5 -27.5t-66.5 28t-26.5 68z" />
    <glyph glyph-name="less" unicode="&#x3c;" horiz-adv-x="835" 
d="M295 487l405 -272l-36 -131l-586 403v11l584 397l36 -129l-403 -268v-11z" />
    <glyph glyph-name="equal" unicode="=" horiz-adv-x="1003" 
d="M848 698v-106h-692v106h692zM848 387v-106h-692v106h692z" />
    <glyph glyph-name="greater" unicode="&#x3e;" horiz-adv-x="835" 
d="M541 498l-404 268l37 129l584 -397v-11l-586 -403l-37 131l406 272v11z" />
    <glyph glyph-name="question" unicode="?" horiz-adv-x="843" 
d="M381 1405q161 0 257.5 -90.5t96.5 -241.5q0 -101 -55 -189.5t-149.5 -226.5t-94.5 -348h-131q0 237 118 410.5t141.5 233t23.5 131.5t-52.5 130t-159.5 58t-172 -41t-85 -62l-37 136q55 43 137 71.5t162 28.5zM281 75q0 40 27.5 67.5t66.5 27.5t68.5 -27.5t29.5 -67.5
t-29.5 -69t-68.5 -29t-66.5 29t-27.5 69z" />
    <glyph glyph-name="at" unicode="@" horiz-adv-x="1480" 
d="M698 -207q-104 0 -212.5 41t-238.5 160t-130 375q0 117 42 249t130 244.5t224 186t302 73.5q291 0 435.5 -151t144.5 -347t-118 -334t-300 -138q-127 0 -138.5 58t-11.5 91q-35 -70 -87 -110.5t-94 -40.5q-79 0 -131 65.5t-52 168.5q0 187 122.5 300t268.5 113
q49 0 107.5 -16.5t93.5 -51.5l-76 -364q-8 -45 -8 -73t12 -42t56 -14t88 31.5t93.5 112t49.5 239.5q0 160 -110 283.5t-324 123.5q-145 0 -256 -58.5t-222.5 -201t-111.5 -389.5t139 -366.5t352 -119.5q258 0 447 164v-102q-107 -96 -244.5 -128t-241.5 -32zM838 729
q-54 0 -102 -37t-93 -116.5t-45 -206.5q0 -68 18.5 -99.5t46.5 -31.5q53 0 114 77.5t77 153.5l49 248q-11 12 -65 12z" />
    <glyph glyph-name="A" unicode="A" 
d="M412 598h483l-254 582zM1331 0h-174l-199 455h-604l-180 -455h-164l541 1352h186z" />
    <glyph glyph-name="B" unicode="B" horiz-adv-x="1144" 
d="M752 1014q0 212 -207 213q-108 0 -189 -4v-439q29 -2 36 -2h89q129 0 200 65t71 167zM530 666q-92 0 -174 -4v-545q81 -6 179 -6q166 0 252.5 76.5t86.5 224.5q0 254 -344 254zM534 1362q166 0 277 -89t111 -261t-140 -264q123 -41 192.5 -129.5t69.5 -223.5
q0 -182 -131.5 -301t-371.5 -119q-176 0 -338 25v1352q165 10 331 10z" />
    <glyph glyph-name="C" unicode="C" 
d="M780 1227q-493 0 -493 -558t489 -558q129 0 237.5 36.5t174.5 90.5l41 -138q-209 -125 -459 -125q-319 0 -486 195t-167 495t177.5 498.5t498.5 198.5q239 0 411 -88l-43 -148q-155 101 -381 101z" />
    <glyph glyph-name="D" unicode="D" horiz-adv-x="1441" 
d="M666 111q489 0 489 558t-493 558q-207 0 -306 -6v-1098q129 -12 310 -12zM636 -25q-204 0 -433 25v1352h10q245 10 413 10q312 0 492 -154q207 -186 207 -546q0 -297 -120 -436.5t-242.5 -195t-326.5 -55.5z" />
    <glyph glyph-name="E" unicode="E" horiz-adv-x="1069" 
d="M985 0h-782v1352h741v-144h-588v-420h451v-143h-451v-502h629v-143z" />
    <glyph glyph-name="F" unicode="F" horiz-adv-x="983" 
d="M784 645h-428v-645h-153v1352h731v-144h-578v-420h428v-143z" />
    <glyph glyph-name="G" unicode="G" horiz-adv-x="1376" 
d="M780 1227q-493 0 -493 -558t489 -558q166 0 314 65v381h153v-444q-208 -138 -473 -138q-319 0 -486 195t-167 495t177.5 498.5t498.5 198.5q243 0 432 -88l-43 -148q-155 101 -402 101z" />
    <glyph glyph-name="H" unicode="H" horiz-adv-x="1441" 
d="M356 768h729v584h154v-1352h-154v625h-729v-625h-153v1352h153v-584z" />
    <glyph glyph-name="I" unicode="I" horiz-adv-x="559" 
d="M356 0h-153v1352h153v-1352z" />
    <glyph glyph-name="J" unicode="J" horiz-adv-x="557" 
d="M356 207q0 -229 -91 -377.5t-265 -148.5l-29 112q201 0 216.5 173t15.5 243v1143h153v-1145z" />
    <glyph glyph-name="K" unicode="K" horiz-adv-x="1224" 
d="M356 0h-153v1352h153v-639q189 130 351.5 323t248.5 316h177q-187 -275 -463 -551q-44 -44 -80 -76l627 -725h-191l-549 627l-121 -92v-535z" />
    <glyph glyph-name="L" unicode="L" horiz-adv-x="995" 
d="M961 0h-758v1352h153v-1209h605v-143z" />
    <glyph glyph-name="M" unicode="M" horiz-adv-x="1726" 
d="M1524 1352v-1352h-154v1022l-414 -1022h-184l-416 1024v-1024h-153v1352h207l458 -1159l459 1159h197z" />
    <glyph glyph-name="N" unicode="N" horiz-adv-x="1441" 
d="M356 0h-153v1352h186l696 -1108v1108h154v-1352h-186l-697 1106v-1106z" />
    <glyph glyph-name="O" unicode="O" horiz-adv-x="1548" 
d="M285 680q0 -569 490 -569q244 0 367.5 154.5t123.5 406.5t-124 403.5t-374 151.5q-483 0 -483 -547zM1258 1163q176 -199 176 -489t-178 -494.5t-493 -204.5t-481.5 197t-166.5 493t177 496.5t483 200.5q307 0 483 -199z" />
    <glyph glyph-name="P" unicode="P" horiz-adv-x="1083" 
d="M518 1227q-88 0 -162 -4v-574q74 -6 168 -6q152 0 228.5 77t76.5 224q0 283 -311 283zM497 1362q238 0 370 -113.5t132 -307.5t-119.5 -313.5t-349.5 -119.5q-98 0 -174 6v-514h-153v1352h8q164 10 286 10z" />
    <glyph glyph-name="Q" unicode="Q" horiz-adv-x="1554" 
d="M769 1227q-480 0 -480 -564q0 -268 123.5 -410t368.5 -142t367 155.5t122 407.5q0 391 -185.5 472t-315.5 81zM741 -121q-138 0 -252 -84l-28 96q99 77 239 86q-277 19 -429 211.5t-152 482.5t177.5 490.5t483.5 200.5t482 -199t176 -484t-165 -485t-468 -217
q72 -8 140.5 -33.5t138 -52t141 -48t151.5 -21.5t172 39l-39 -131q-64 -33 -151 -33q-86 0 -168 28.5t-159 62.5t-149.5 62.5t-140.5 28.5z" />
    <glyph glyph-name="R" unicode="R" horiz-adv-x="1218" 
d="M520 1227q-90 0 -164 -4v-506q37 -4 48 -4h120q152 0 228.5 70.5t76.5 190.5t-68.5 186.5t-240.5 66.5zM501 1362q232 0 365 -102t133 -287q0 -131 -73.5 -233.5t-227.5 -143.5l519 -596h-191l-506 578q-90 0 -164 6v-584h-153v1352q180 10 298 10z" />
    <glyph glyph-name="S" unicode="S" horiz-adv-x="1128" 
d="M517 111q360 0 360 221q0 171 -147.5 226.5t-222.5 80.5q-187 62 -280.5 145.5t-93.5 245.5t119.5 247t327.5 85t376 -78l-43 -158q-115 101 -352 101q-278 0 -278 -201q0 -94 66 -136t209 -90q143 -49 216.5 -80.5t166.5 -104.5t93 -261t-138.5 -283.5t-365.5 -95.5
q-228 0 -430 113l43 150q96 -66 180 -96.5t194 -30.5z" />
    <glyph glyph-name="T" unicode="T" horiz-adv-x="1091" 
d="M1055 1208h-432v-1208h-154v1208h-432v144h1018v-144z" />
    <glyph glyph-name="U" unicode="U" horiz-adv-x="1409" 
d="M342 524q0 -221 97.5 -317t269.5 -96t270 96t98 317v828h144v-897q0 -212 -131 -345t-392 -133t-385.5 131t-124.5 347v897h154v-828z" />
    <glyph glyph-name="V" unicode="V" horiz-adv-x="1318" 
d="M-14 1352h174l514 -1180l469 1180h164l-537 -1352h-195z" />
    <glyph glyph-name="W" unicode="W" horiz-adv-x="2213" 
d="M1106 1118l-381 -1118h-195l-532 1352h174l455 -1157l395 1157h174l420 -1153l412 1153h163l-481 -1352h-194z" />
    <glyph glyph-name="X" unicode="X" horiz-adv-x="1323" 
d="M655 584l-448 -584h-176l536 698l-506 654h183l422 -547l421 547h177l-510 -662l536 -690h-182z" />
    <glyph glyph-name="Y" unicode="Y" horiz-adv-x="1159" 
d="M657 0h-153v547l-527 805h183l428 -650l413 650h179l-523 -797v-555z" />
    <glyph glyph-name="Z" unicode="Z" horiz-adv-x="1134" 
d="M1047 0h-959v143l754 1065h-723v144h897v-144l-754 -1065h785v-143z" />
    <glyph glyph-name="bracketleft" unicode="[" horiz-adv-x="585" 
d="M512 -195h-328v1729h328v-86h-195v-1557h195v-86z" />
    <glyph glyph-name="backslash" unicode="\" horiz-adv-x="864" 
d="M72 1438h149l570 -1555h-150z" />
    <glyph glyph-name="bracketright" unicode="]" horiz-adv-x="585" 
d="M74 1534h327v-1729h-327v86h194v1557h-194v86z" />
    <glyph glyph-name="asciicircum" unicode="^" horiz-adv-x="712" 
d="M365 1378l225 -202l6 -15l-12 -39l-15 -6l-213 125l-213 -125l-14 6l-12 39l6 15l225 202h17z" />
    <glyph glyph-name="underscore" unicode="_" horiz-adv-x="1001" 
d="M944 0v-106h-887v106h887z" />
    <glyph glyph-name="grave" unicode="`" horiz-adv-x="448" 
d="M0 1325q0 25 18.5 45.5t53.5 22.5l370 -207l7 -15l-13 -41l-16 -6l-412 158q-8 18 -8 43z" />
    <glyph glyph-name="a" unicode="a" horiz-adv-x="1019" 
d="M400 96q79 0 173.5 53.5t153.5 153.5v191h-18q-215 0 -302.5 -31t-130.5 -77t-43 -126t44 -122t123 -42zM479 973q391 0 391 -332v-641h-112l-17 168h-8q-52 -80 -159 -136.5t-232 -56.5t-192.5 79t-67.5 197t59.5 187.5t170 114.5t323.5 45h92v25q0 78 -40 153.5
t-235 75.5q-130 0 -268 -82l-32 123q137 80 327 80z" />
    <glyph glyph-name="b" unicode="b" horiz-adv-x="1177" 
d="M639 96q154 0 221.5 108t67.5 270q0 161 -82 269.5t-223 108.5q-109 0 -196 -65.5t-124 -182.5v-301q59 -98 153.5 -152.5t182.5 -54.5zM160 0v1516h143v-750q27 88 117 147.5t211 59.5q219 0 333.5 -144t114.5 -356t-107.5 -355t-319.5 -143q-118 0 -212 58.5
t-143 134.5h-8l-17 -168h-112z" />
    <glyph glyph-name="c" unicode="c" horiz-adv-x="1024" 
d="M583 860q-165 0 -249 -105t-84 -270t93 -281t255 -116q82 0 169 35t144 88l29 -133q-57 -37 -156.5 -70t-215.5 -33q-225 0 -347.5 145.5t-122.5 358.5q0 212 121.5 353t366.5 141q98 0 192 -22.5t152 -59.5l-35 -121q-47 35 -135 62.5t-177 27.5z" />
    <glyph glyph-name="d" unicode="d" horiz-adv-x="1177" 
d="M538 96q88 0 183.5 53.5t152.5 153.5v301q-37 117 -123.5 182.5t-176.5 65.5q-159 0 -241.5 -108.5t-82.5 -280.5q0 -242 100 -304.5t188 -62.5zM526 -25q-212 0 -320 143.5t-108 354.5q0 210 114.5 355t322.5 145q137 0 225 -59.5t114 -147.5v750h144v-1516h-113
l-16 168h-8q-49 -76 -143 -134.5t-212 -58.5z" />
    <glyph glyph-name="e" unicode="e" horiz-adv-x="1058" 
d="M825 622v25q0 100 -72.5 155.5t-192.5 55.5t-194.5 -70.5t-101.5 -177.5h559q2 10 2 12zM567 -25q-223 0 -347 145.5t-124 353.5t129 353.5t357 145.5q180 0 278 -91t98 -257q0 -94 -18 -123h-690v-21q0 -166 86 -281.5t248 -115.5q126 0 214.5 49t116.5 70l25 -117
q-187 -111 -373 -111z" />
    <glyph glyph-name="f" unicode="f" horiz-adv-x="610" 
d="M209 846h-158v76l158 18q0 353 84 485q69 101 215 101q108 0 178 -35l-35 -121q-10 0 -81 24.5t-108 24.5q-67 0 -88.5 -74t-21.5 -268v-135h221v-96h-221v-846h-143v846z" />
    <glyph glyph-name="g" unicode="g" horiz-adv-x="1040" 
d="M518 -381q216 0 267 68.5t51 115.5q0 92 -99.5 132.5t-304.5 54.5q-89 0 -155 -64t-66 -139q0 -76 83 -122t224 -46zM669.5 781.5q-67.5 84.5 -180.5 84.5t-176 -78.5t-63 -178.5t66.5 -176.5t177.5 -76.5t177 68t66 170.5t-67.5 187zM342 174q0 -44 117 -55l198 -21
q138 -12 230 -84t92 -190q0 -59 -58 -195.5t-413 -136.5q-206 0 -324 79.5t-118 192.5q0 80 57 154t139 105v8q-84 39 -84 106q0 43 32 78t79 68v8q-98 39 -141.5 124t-43.5 174q0 169 105.5 276.5t279.5 107.5q117 0 197 -41q189 4 301 37l10 -8l-14 -113l-10 -10l-187 8
l-2 -6q53 -43 78 -113.5t25 -136.5q0 -142 -104.5 -239t-284.5 -97l-70 2q-43 -14 -64.5 -39t-21.5 -43z" />
    <glyph glyph-name="h" unicode="h" horiz-adv-x="1116" 
d="M821 0v623q0 125 -55.5 177t-123.5 52q-124 0 -213 -65t-126 -183v-604h-143v1516h143v-750q27 86 116 146.5t226 60.5q222 0 271 -120t49 -212v-641h-144z" />
    <glyph glyph-name="i" unicode="i" horiz-adv-x="462" 
d="M129 1285q0 42 29.5 75t71.5 33t75 -33t33 -75t-33 -71.5t-75 -29.5t-71.5 29.5t-29.5 71.5zM303 0h-143v942h143v-942z" />
    <glyph glyph-name="j" unicode="j" horiz-adv-x="462" 
d="M129 1285q0 42 29.5 75t71.5 33t75 -33t33 -75t-33 -71.5t-75 -29.5t-71.5 29.5t-29.5 71.5zM303 -6q0 -224 -81.5 -373t-231.5 -149q-33 0 -45 6l-33 119q12 -7 64 -7t92.5 40t66 114t25.5 252v946h143v-948z" />
    <glyph glyph-name="k" unicode="k" horiz-adv-x="970" 
d="M303 0h-143v1516h143v-971l414 397h164l-336 -332l401 -610h-164l-338 512l-141 -141v-371z" />
    <glyph glyph-name="l" unicode="l" horiz-adv-x="487" 
d="M315 0h-143v1516h143v-1516z" />
    <glyph glyph-name="m" unicode="m" horiz-adv-x="1759" 
d="M813 0v623q0 125 -57.5 177t-152.5 52t-179 -64.5t-121 -183.5v-604h-143v942h112l17 -176h8q27 86 112 146.5t214 60.5t212 -54.5t105 -152.5q69 141 174 174t171 33q144 0 234.5 -80.5t90.5 -251.5v-641h-144v623q0 125 -57 177t-152 52t-179.5 -64.5t-121.5 -183.5
v-604h-143z" />
    <glyph glyph-name="n" unicode="n" horiz-adv-x="1116" 
d="M821 0v623q0 123 -55.5 176t-123.5 53q-124 0 -213 -65t-126 -183v-604h-143v942h112l17 -176h8q27 86 119 146.5t229 60.5q222 0 271 -120t49 -212v-641h-144z" />
    <glyph glyph-name="o" unicode="o" horiz-adv-x="1148" 
d="M817.5 191.5q81.5 107.5 81.5 273.5q0 167 -85 280t-244 113t-239.5 -106.5t-80.5 -272.5t83.5 -280.5t242.5 -114.5q160 0 241.5 107.5zM932.5 113q-118.5 -138 -353.5 -138t-358 144t-123 356.5t121 355t356 142.5t355.5 -146.5t120.5 -361t-118.5 -352.5z" />
    <glyph glyph-name="p" unicode="p" horiz-adv-x="1177" 
d="M619 852q-88 0 -173.5 -53.5t-142.5 -153.5v-301q34 -110 130 -179t188 -69t145 29t107.5 106t54.5 238q0 257 -110.5 320t-198.5 63zM685 973q85 0 163 -41t154.5 -142.5t76.5 -312.5q0 -212 -114.5 -357t-321.5 -145q-137 0 -225 59.5t-115 147.5v-714h-143v1474h112
l17 -176h8q140 207 388 207z" />
    <glyph glyph-name="q" unicode="q" horiz-adv-x="1177" 
d="M559 852q-157 0 -233 -110.5t-76 -271.5t74 -267.5t213 -106.5q172 0 245.5 94.5t91.5 153.5v301q-57 100 -142 153.5t-173 53.5zM489 973q141 0 239 -60.5t153 -146.5h8l16 176h113v-1474h-144v714q-27 -88 -114.5 -147.5t-210.5 -59.5q-223 0 -337 146t-114 356t77 312
t153 143t161 41z" />
    <glyph glyph-name="r" unicode="r" horiz-adv-x="731" 
d="M303 0h-143v942h112l17 -207h8q48 162 131.5 200t130.5 38t90 -13.5t62 -33.5l-43 -135q-73 40 -122 40q-86 0 -152 -82t-91 -198v-551z" />
    <glyph glyph-name="s" unicode="s" horiz-adv-x="903" 
d="M133 211q140 -129 341 -129q87 0 140.5 50t53.5 107t-26.5 102t-117.5 67l-196 49q-224 53 -224 241q0 125 93.5 200t248.5 75q80 0 172.5 -21.5t155.5 -62.5l-39 -123q-41 35 -122 63.5t-178 28.5t-141 -36t-44 -93t36 -96.5t120 -57.5l145 -32q150 -31 208 -105
t58 -148q0 -143 -102 -229t-271 -86q-109 0 -200.5 32t-147.5 71z" />
    <glyph glyph-name="t" unicode="t" horiz-adv-x="641" 
d="M409 -23q-86 0 -122.5 18.5t-60 58t-23.5 134.5v658h-158v76l162 20l31 285h108v-285h221v-96h-221v-653q0 -66 19.5 -86.5t80.5 -20.5t129 49l29 -108q-109 -50 -195 -50z" />
    <glyph glyph-name="u" unicode="u" horiz-adv-x="1114" 
d="M293 319q0 -223 196 -223q171 0 237.5 91.5t84.5 150.5v604h143v-942h-112l-17 176h-8q-27 -86 -119 -143.5t-229 -57.5q-224 0 -271.5 117t-47.5 209v641h143v-623z" />
    <glyph glyph-name="v" unicode="v" horiz-adv-x="1067" 
d="M625 0h-183l-428 942h156l367 -807l366 807h150z" />
    <glyph glyph-name="w" unicode="w" horiz-adv-x="1683" 
d="M1294 0h-194l-256 737l-271 -737h-194l-346 942h151l295 -803l295 803h152l276 -803l314 803h145z" />
    <glyph glyph-name="x" unicode="x" horiz-adv-x="1058" 
d="M530 584l297 358h174l-387 -457l408 -485h-174l-322 383l-315 -383h-174l405 481l-385 461h174z" />
    <glyph glyph-name="y" unicode="y" horiz-adv-x="1062" 
d="M92 -389q83 0 147 46q126 91 228 374l-471 911h170l375 -784l336 784h161l-432 -950q-31 -66 -74 -155t-143.5 -225t-277.5 -136q-28 0 -43 6l-27 135q18 -6 51 -6z" />
    <glyph glyph-name="z" unicode="z" horiz-adv-x="854" 
d="M106 821v121h644v-119l-502 -702h522v-121h-684v123l498 698h-478z" />
    <glyph glyph-name="braceleft" unicode="{" horiz-adv-x="583" 
d="M219 1126l-2 140q0 144 55.5 217t219.5 73l4 -43q-84 -7 -109 -61t-25 -147l1 -35l4 -258q0 -301 -193 -342q193 -41 193 -342l-1 -38l-4 -255q0 -94 25.5 -148t108.5 -61l-4 -43q-165 0 -220 73.5t-55 217.5l4 303q0 110 -16.5 157.5t-46 75t-84.5 29.5v61
q94 3 120.5 78t26.5 191z" />
    <glyph glyph-name="bar" unicode="|" horiz-adv-x="491" 
d="M309 -233h-127v1806h127v-1806z" />
    <glyph glyph-name="braceright" unicode="}" horiz-adv-x="583" 
d="M217 1012l4 293q0 95 -25.5 148t-107.5 60l4 43q164 0 219.5 -73t55.5 -217l-1 -35l-4 -262q0 -112 26 -189t122 -80v-61q-131 -5 -139.5 -115t-8.5 -147l1 -39l4 -264q0 -144 -55 -217.5t-220 -73.5l-4 43q115 10 124 89t9 120l-4 293q0 299 193 342q-193 41 -193 342z
" />
    <glyph glyph-name="asciitilde" unicode="~" horiz-adv-x="1015" 
d="M340 571l367 -18q35 0 70.5 8t62.5 45l24 -16q0 -6 -10 -32t-49 -76t-121 -50l-391 19q-51 0 -71.5 -13.5t-41.5 -38.5l-26 15q0 41 53 99t133 58z" />
    <glyph glyph-name="uni00A0" unicode="&#xa0;" horiz-adv-x="501" 
 />
    <glyph glyph-name="exclamdown" unicode="&#xa1;" horiz-adv-x="491" 
d="M293 643l53 -1089h-199l50 1089h96zM152 879q0 39 27.5 66.5t66.5 27.5t68.5 -27.5t29.5 -66.5t-29.5 -69t-68.5 -30t-66.5 30t-27.5 69z" />
    <glyph glyph-name="cent" unicode="&#xa2;" horiz-adv-x="1036" 
d="M320.5 218q72.5 -100 205.5 -124v701q-142 -19 -210 -110.5t-68 -228.5q0 -138 72.5 -238zM649 -281h-123v258q-210 15 -320 149.5t-110 321.5t106.5 314.5t323.5 146.5v273h123v-275q181 -13 279 -78l-35 -120q-79 59 -244 84v-703q161 22 260 121l29 -133
q-120 -79 -289 -98v-261z" />
    <glyph glyph-name="sterling" unicode="&#xa3;" horiz-adv-x="1161" 
d="M358 512v31h-200v106h192q-10 94 -24.5 184.5t-14.5 176.5t35 155.5t116.5 133t237.5 63.5q94 0 180.5 -29.5t139.5 -70.5l-37 -136q-41 41 -119 71t-149 30q-125 0 -172 -61.5t-47 -149.5q0 -87 13 -175.5t19 -191.5h285v-106h-281q-4 -104 -43.5 -220t-121.5 -212l4 -7
q89 -6 259 -46t261 -40q92 0 184 39l-39 -149q-77 -41 -159 -41q-81 0 -152.5 21.5t-142 46t-143 46t-166.5 21.5t-175 -65l-28 96q288 126 288 479z" />
    <glyph glyph-name="currency" unicode="&#xa4;" horiz-adv-x="1189" 
d="M595 774q-62 0 -117.5 -23.5t-97.5 -64.5t-65.5 -97.5t-23.5 -119.5t23.5 -118.5t65.5 -97.5t97 -65.5t118.5 -23.5t118 23.5t95.5 65.5t64.5 97.5t23.5 118.5t-23.5 118.5t-64.5 96.5t-96.5 65.5t-117.5 24.5zM597 872q132 0 247 -90l166 160l61 -59l-162 -164
q90 -121 90 -252q0 -132 -88 -248l164 -164l-63 -61l-166 162q-240 -183 -504 0l-164 -162l-59 61l160 164q-91 111 -91 248t93 252l-168 164l61 61l164 -162q127 90 259 90z" />
    <glyph glyph-name="yen" unicode="&#xa5;" horiz-adv-x="1329" 
d="M590 522v25l-55 84h-297v106h227l-402 615h183l428 -650l413 650h179l-404 -615h234v-106h-303l-50 -76v-33h353v-106h-353v-416h-153v416h-352v106h352z" />
    <glyph glyph-name="brokenbar" unicode="&#xa6;" horiz-adv-x="499" 
d="M186 778v795h127v-795h-127zM313 561v-794h-127v794h127z" />
    <glyph glyph-name="section" unicode="&#xa7;" horiz-adv-x="901" 
d="M680 503q0 75 -45 126t-108.5 99t-133 98.5t-119.5 115.5q-53 -49 -53 -124t44 -126t107.5 -98t133 -98.5t121.5 -116.5q53 49 53 124zM565 140q0 66 -34.5 113.5t-87 90.5t-114 86t-148.5 123.5t-87 208.5q0 78 36 148.5t95 115.5q-25 55 -25 129q1 140 94.5 218.5
t207.5 78.5q59 0 124.5 -22.5t110.5 -55.5l-51 -137q-78 86 -192 86q-61 0 -109.5 -38t-48.5 -103t35 -112.5t87 -90.5t113.5 -86t148.5 -123.5t87 -208.5q0 -78 -36 -149.5t-95 -114.5q24 -70 24 -136q0 -132 -93.5 -211t-207.5 -79q-59 0 -124.5 22.5t-110.5 55.5l51 137
q78 -86 193 -86q61 0 109 37t48 103z" />
    <glyph glyph-name="dieresis" unicode="&#xa8;" horiz-adv-x="450" 
d="M281 1291q0 38 24.5 65.5t59 27.5t60.5 -27.5t26 -65.5t-26 -63.5t-60.5 -25.5t-59 25.5t-24.5 63.5zM0 1291q0 38 24.5 65.5t59.5 27.5t60.5 -27.5t25.5 -65.5t-25.5 -63.5t-60.5 -25.5t-59.5 25.5t-24.5 63.5z" />
    <glyph glyph-name="copyright" unicode="&#xa9;" horiz-adv-x="1484" 
d="M742 967q-109 0 -159.5 -64t-50.5 -167t54.5 -177t163.5 -74q59 0 119.5 23.5t101.5 62.5l18 -114q-41 -27 -110.5 -49.5t-150.5 -22.5q-154 0 -237 95.5t-83 248.5q0 237 121.5 287.5t200.5 50.5q163 0 253 -57l-25 -105q-33 25 -95.5 43.5t-120.5 18.5zM366.5 1100
q-149.5 -155 -149.5 -377t150 -377.5t372 -155.5q221 0 375 154t154 377t-151.5 378.5t-376 155.5t-374 -155zM741 1339q129 0 243 -48t247 -181t133 -385q0 -129 -49 -242.5t-134 -196.5t-201 -131.5t-245 -48.5t-240.5 49.5t-194.5 133.5t-131 196.5t-48 239.5t48 238.5
t133 195.5t197.5 132t241.5 48z" />
    <glyph glyph-name="ordfeminine" unicode="&#xaa;" horiz-adv-x="763" 
d="M221 890.5q0 -67.5 90 -67.5q49 0 106.5 34t92.5 93v99h-10q-199 0 -239 -45.5t-40 -113zM510 1133q0 137 -165 137q-79 0 -161 -49l-20 73q89 54 196 54q167 0 208.5 -75t41.5 -130v-387h-82l-10 100h-8q-29 -47 -91.5 -82t-138.5 -35t-116.5 47.5t-40.5 117.5
q0 126 103.5 170t228.5 44h55v15z" />
    <glyph glyph-name="guillemotleft" unicode="&#xab;" horiz-adv-x="991" 
d="M580 487l294 -362h-163l-273 362v11l275 362h161l-294 -362v-11zM248 487l295 -362h-164l-273 362v11l275 362h162l-295 -362v-11z" />
    <glyph glyph-name="logicalnot" unicode="&#xac;" horiz-adv-x="1294" 
d="M1139 698v-458h-109v352h-874v106h983z" />
    <glyph glyph-name="uni00AD" unicode="&#xad;" horiz-adv-x="997" 
d="M844 543l-4 -107h-688l4 107h688z" />
    <glyph glyph-name="registered" unicode="&#xae;" horiz-adv-x="1484" 
d="M862 907q0 105 -147 105l-80 -2v-228q18 -2 23 -2h59q68 0 106.5 33t38.5 94zM965 899q0 -63 -43 -113.5t-119 -70.5l207 -303h-113l-203 297h-59v-297h-98v673q88 5 190 5q238 0 238 -191zM366.5 1100q-149.5 -155 -149.5 -377t150 -377.5t372 -155.5q221 0 375 154
t154 377t-151.5 378.5t-376 155.5t-374 -155zM741 1339q129 0 243 -48t247 -181t133 -385q0 -129 -49 -242.5t-134 -196.5t-201 -131.5t-245 -48.5t-240.5 49.5t-194.5 133.5t-131 196.5t-48 239.5t48 238.5t133 195.5t197.5 132t241.5 48z" />
    <glyph glyph-name="degree" unicode="&#xb0;" horiz-adv-x="733" 
d="M366 956q77 0 112.5 42t35.5 107.5t-37 112t-116 46.5t-113.5 -44t-34.5 -108t38 -110t115 -46zM553 1276q63 -72 63 -169t-63.5 -162.5t-187.5 -65.5t-186 67t-62 166t65.5 167.5t186.5 68.5t184 -72z" />
    <glyph glyph-name="plusminus" unicode="&#xb1;" horiz-adv-x="989" 
d="M821 252v-109h-653v109h653zM547 719h274v-109h-274v-235h-107v235h-272v109h272v213h107v-213z" />
    <glyph glyph-name="twosuperior" unicode="&#xb2;" horiz-adv-x="768" 
d="M384 1362q110 0 167 -55.5t57 -133.5t-31.5 -136t-82 -113.5t-113 -109.5t-123.5 -116h358v-86h-483v86q49 61 112.5 117.5t120 113t96.5 114t40 124.5t-41 90t-86 23t-99.5 -31.5t-89.5 -77.5l-22 91q110 100 220 100z" />
    <glyph glyph-name="threesuperior" unicode="&#xb3;" horiz-adv-x="731" 
d="M356 1362q97 0 156 -49t59 -144q0 -45 -34.5 -82.5t-81.5 -60.5q155 -50 155 -184q0 -164 -106 -202t-180 -38t-118 20.5t-91 57.5l24 82q43 -35 80 -56.5t117 -21.5t126 45t46 115t-40 105.5t-153 35.5h-24v70h31q147 0 147 125q0 45 -22.5 72.5t-103.5 27.5t-157 -59
l-22 79q95 62 192 62z" />
    <glyph glyph-name="acute" unicode="&#xb4;" horiz-adv-x="448" 
d="M449 1326q0 -24 -9 -44l-413 -158l-15 6l-12 41l6 15l369 207q35 -2 54.5 -22.5t19.5 -44.5z" />
    <glyph glyph-name="mu" unicode="&#xb5;" horiz-adv-x="1181" 
d="M552 -25q-142 0 -222 72l-6 -27q-35 -152 -111 -307l-131 60q82 155 119 275.5t37 252.5v641h143v-623q0 -223 197 -223q170 0 236.5 91.5t84.5 150.5v604h143v-942h-112l-17 176h-8q-27 -86 -119 -143.5t-234 -57.5z" />
    <glyph glyph-name="paragraph" unicode="&#xb6;" horiz-adv-x="1091" 
d="M561 1362q108 0 328 -10v-1528h-92v1403h-111v-1403h-102v684h-43q-230 0 -349.5 119.5t-119.5 314.5t131 307.5t358 112.5z" />
    <glyph glyph-name="periodcentered" unicode="&#xb7;" horiz-adv-x="495" 
d="M152 498q0 39 27.5 68.5t66.5 29.5t68.5 -29.5t29.5 -68.5t-29.5 -67t-68.5 -28t-66.5 28t-27.5 67z" />
    <glyph glyph-name="cedilla" unicode="&#xb8;" horiz-adv-x="413" 
d="M182 -342q111 0 111 82q0 94 -107 94q-44 0 -98 -14l-18 22l104 158h70l-62 -104q34 8 88 8t99 -42t45 -92t-17.5 -80t-66 -68t-138.5 -38t-190 39l-2 12l27 48h14q62 -25 141 -25z" />
    <glyph glyph-name="onesuperior" unicode="&#xb9;" horiz-adv-x="507" 
d="M342 612h-111v586l-116 -57l-27 86l254 135v-750z" />
    <glyph glyph-name="ordmasculine" unicode="&#xba;" horiz-adv-x="798" 
d="M354 1257q-135 0 -135 -204q0 -90 44 -151.5t138 -61.5t135.5 57t41.5 146t-44.5 151.5t-179.5 62.5zM606.5 1260q77.5 -88 77.5 -212t-74.5 -208t-212.5 -84t-210 88t-72 210t77.5 208t207.5 86q129 0 206.5 -88z" />
    <glyph glyph-name="guillemotright" unicode="&#xbb;" horiz-adv-x="991" 
d="M412 498l-295 362h162l274 -362v-11l-272 -362h-164l295 362v11zM743 498l-294 362h161l275 -362v-11l-273 -362h-163l294 362v11z" />
    <glyph glyph-name="onequarter" unicode="&#xbc;" horiz-adv-x="1456" 
d="M326 612h-111v586l-117 -57l-26 86l254 135v-750zM295 -49h-133l948 1464h133zM1202 311v316l-203 -316h203zM1368 225h-74v-227h-92v227h-307v86l301 437h98v-437h74v-86z" />
    <glyph glyph-name="onehalf" unicode="&#xbd;" horiz-adv-x="1464" 
d="M1364 557q0 -78 -32 -136.5t-82 -113.5t-112.5 -109.5t-123.5 -115.5h358v-86h-483v86q49 61 112.5 117.5t120 113t96 113.5t39.5 125t-40.5 90.5t-85.5 22.5t-99.5 -32t-89.5 -77l-22 90q109 100 220 100q110 0 167 -55t57 -133zM258 -49h-133l948 1464h133zM330 612
h-111v586l-117 -57l-26 86l254 135v-750z" />
    <glyph glyph-name="threequarters" unicode="&#xbe;" horiz-adv-x="1536" 
d="M403 -49h-133l949 1464h133zM1282 311v316l-203 -316h203zM1448 225h-74v-227h-92v227h-307v86l301 437h98v-437h74v-86zM317 1360q97 0 156 -49t59 -144q0 -45 -34.5 -82.5t-81.5 -60.5q155 -50 155 -184q0 -164 -106.5 -202t-180.5 -38t-117.5 20.5t-90.5 57.5l24 82
q43 -35 80 -56.5t118 -21.5t126 45t45 115t-40 105.5t-153 35.5h-24v70h31q147 0 147 125q0 45 -22.5 72.5t-103.5 27.5t-157 -59l-22 79q95 62 192 62z" />
    <glyph glyph-name="questiondown" unicode="&#xbf;" horiz-adv-x="823" 
d="M448 -455q-160 0 -257 91t-97 241q0 101 55.5 190t149.5 225t94 349h131q0 -241 -116.5 -409.5t-141 -231.5t-24.5 -135t52 -129.5t159 -57.5q60 0 135.5 28t122.5 75l37 -135q-55 -43 -137.5 -72t-162.5 -29zM549 876q0 -40 -27.5 -68t-66.5 -28t-69 28t-30 68t30 68.5
t69 28.5t66.5 -28.5t27.5 -68.5z" />
    <glyph glyph-name="Agrave" unicode="&#xc0;" 
d="M438 1671q0 25 18.5 44.5t53.5 21.5l371 -205l4 -14l-11 -41l-16 -7l-412 158q-8 18 -8 43zM412 598h483l-254 582zM1331 0h-174l-199 455h-604l-180 -455h-164l541 1352h186z" />
    <glyph glyph-name="Aacute" unicode="&#xc1;" 
d="M866.5 1715.5q18.5 -19.5 18.5 -45.5t-6 -42l-414 -158l-14 7l-13 41l6 14l369 205q35 -2 53.5 -21.5zM412 598h483l-254 582zM1331 0h-174l-199 455h-604l-180 -455h-164l541 1352h186z" />
    <glyph glyph-name="Acircumflex" unicode="&#xc2;" 
d="M676 1724l225 -202l6 -15l-12 -41l-14 -6l-213 127l-213 -127l-15 6l-12 41l6 15l225 202h17zM412 598h483l-254 582zM1331 0h-174l-199 455h-604l-180 -455h-164l541 1352h186z" />
    <glyph glyph-name="Atilde" unicode="&#xc3;" 
d="M981 1704q-33 -158 -199 -158q-62 0 -148 14.5t-144 14.5t-78.5 -13.5t-40.5 -37.5l-27 16q46 156 186 156q86 0 160 -14.5t121 -14.5t82 8t63 45zM412 598h483l-254 582zM1331 0h-174l-199 455h-604l-180 -455h-164l541 1352h186z" />
    <glyph glyph-name="Adieresis" unicode="&#xc4;" 
d="M739 1625q0 38 24.5 65.5t58.5 27.5t59.5 -27.5t25.5 -65.5t-25.5 -63.5t-59.5 -25.5t-58.5 25.5t-24.5 63.5zM418 1625q0 38 24.5 65.5t59.5 27.5t60.5 -27.5t25.5 -65.5t-25.5 -63.5t-60.5 -25.5t-59.5 25.5t-24.5 63.5zM412 598h483l-254 582zM1331 0h-174l-199 455
h-604l-180 -455h-164l541 1352h186z" />
    <glyph glyph-name="Aring" unicode="&#xc5;" 
d="M645 1339q41 0 66.5 31t25.5 71t-27.5 69.5t-70.5 29.5t-68.5 -26.5t-25.5 -67.5t29.5 -74t70.5 -33zM412 598h483l-254 582zM465 1433q0 74 49 121.5t129 47.5t128 -49.5t48 -119.5t-69 -112l581 -1321h-174l-199 455h-604l-180 -455h-164l529 1321q-74 38 -74 112z" />
    <glyph glyph-name="AE" unicode="&#xc6;" horiz-adv-x="1554" 
d="M793 598v606l-324 -606h324zM1473 0h-680v455h-400l-239 -455h-168l721 1352h725v-144h-486v-420h348v-143h-348v-502h527v-143z" />
    <glyph glyph-name="Ccedilla" unicode="&#xc7;" 
d="M780 1227q-493 0 -493 -558t489 -558q129 0 237.5 36.5t174.5 90.5l41 -138q-193 -116 -436 -125l-50 -79q36 8 68 8q72 0 117 -42t45 -92t-16.5 -80t-64 -68t-141 -38t-188.5 39l-2 12l27 48h14q62 -25 141 -25q109 0 109 82q0 55 -30.5 74.5t-75.5 19.5t-99 -14l-16 22
l88 135q-293 15 -447.5 208t-154.5 486q0 294 177.5 492.5t498.5 198.5q239 0 411 -88l-43 -148q-155 101 -381 101z" />
    <glyph glyph-name="Egrave" unicode="&#xc8;" horiz-adv-x="1069" 
d="M344 1671q0 25 18.5 44.5t53.5 21.5l370 -205l7 -14l-13 -41l-16 -7l-412 158q-8 18 -8 43zM985 0h-782v1352h741v-144h-588v-420h451v-143h-451v-502h629v-143z" />
    <glyph glyph-name="Eacute" unicode="&#xc9;" horiz-adv-x="1069" 
d="M813 1672q0 -24 -8 -44l-414 -158l-14 7l-12 41l6 14l370 205q35 -2 53.5 -21.5t18.5 -43.5zM985 0h-782v1352h741v-144h-588v-420h451v-143h-451v-502h629v-143z" />
    <glyph glyph-name="Ecircumflex" unicode="&#xca;" horiz-adv-x="1069" 
d="M596 1724l225 -202l6 -15l-12 -41l-14 -6l-213 127l-213 -127l-15 6l-12 41l6 15l226 202h16zM985 0h-782v1352h741v-144h-588v-420h451v-143h-451v-502h629v-143z" />
    <glyph glyph-name="Edieresis" unicode="&#xcb;" horiz-adv-x="1069" 
d="M324 1625q0 38 24.5 65.5t59 27.5t60.5 -27.5t26 -65.5t-26 -63.5t-60.5 -25.5t-59 25.5t-24.5 63.5zM645 1625q0 38 24.5 65.5t59.5 27.5t60.5 -27.5t25.5 -65.5t-25.5 -63.5t-60.5 -25.5t-59.5 25.5t-24.5 63.5zM985 0h-782v1352h741v-144h-588v-420h451v-143h-451
v-502h629v-143z" />
    <glyph glyph-name="Igrave" unicode="&#xcc;" horiz-adv-x="559" 
d="M356 0h-153v1352h153v-1352zM31 1671q0 25 18.5 44.5t52.5 21.5l371 -205l6 -14l-12 -41l-14 -7l-414 158q-8 18 -8 43z" />
    <glyph glyph-name="Iacute" unicode="&#xcd;" horiz-adv-x="559" 
d="M356 0h-153v1352h153v-1352zM520 1672q0 -24 -8 -44l-412 -158l-16 7l-12 41l6 14l371 205q35 -2 53 -21.5t18 -43.5z" />
    <glyph glyph-name="Icircumflex" unicode="&#xce;" horiz-adv-x="559" 
d="M356 0h-153v1352h153v-1352zM283 1724l227 -202l6 -15l-12 -41l-17 -6l-211 127l-213 -127l-16 6l-10 41l6 15l225 202h15z" />
    <glyph glyph-name="Idieresis" unicode="&#xcf;" horiz-adv-x="559" 
d="M356 0h-153v1352h153v-1352zM360 1625q0 38 25 65.5t59.5 27.5t60 -27.5t25.5 -65.5t-25.5 -63.5t-60 -25.5t-59.5 25.5t-25 63.5zM39 1625q0 38 24.5 65.5t59.5 27.5t60.5 -27.5t25.5 -65.5t-25.5 -63.5t-60.5 -25.5t-59.5 25.5t-24.5 63.5z" />
    <glyph glyph-name="Eth" unicode="&#xd0;" horiz-adv-x="1445" 
d="M631 1227q-172 0 -271 -6v-463h359v-90h-359v-545q129 -12 310 -12q489 0 489 567q0 264 -84 366.5t-178 142.5t-266 40zM640 -25q-204 0 -433 25v668h-178v90h178v594h10q245 10 413 10q312 0 492 -154q207 -186 207 -546q0 -297 -119.5 -436.5t-242.5 -195t-327 -55.5z
" />
    <glyph glyph-name="Ntilde" unicode="&#xd1;" horiz-adv-x="1441" 
d="M1012 1704q-32 -158 -200 -158q-62 0 -147 14.5t-143 14.5t-79 -13.5t-42 -37.5l-26 16q46 156 186 156q86 0 160 -14.5t121 -14.5t81.5 8t63.5 45zM1085 1352h154v-1352h-174l-709 1110v-1110h-153v1352h174l708 -1112v1112z" />
    <glyph glyph-name="Ograve" unicode="&#xd2;" horiz-adv-x="1548" 
d="M285 680q0 -569 490 -569q244 0 367.5 154.5t123.5 406.5t-124 403.5t-374 151.5q-483 0 -483 -547zM1258 1163q176 -199 176 -489t-178 -494.5t-493 -204.5t-481.5 197t-166.5 493t177 496.5t483 200.5q307 0 483 -199zM492 1671q0 25 18 44.5t53 21.5l369 -205l6 -14
l-10 -41l-17 -7l-411 158q-8 18 -8 43z" />
    <glyph glyph-name="Oacute" unicode="&#xd3;" horiz-adv-x="1548" 
d="M285 680q0 -569 490 -569q244 0 367.5 154.5t123.5 406.5t-124 403.5t-374 151.5q-483 0 -483 -547zM1258 1163q176 -199 176 -489t-178 -494.5t-493 -204.5t-481.5 197t-166.5 493t177 496.5t483 200.5q307 0 483 -199zM1075 1672q0 -24 -6 -44l-414 -158l-16 7l-10 41
l6 14l369 205q35 -2 53 -21.5t18 -43.5z" />
    <glyph glyph-name="Ocircumflex" unicode="&#xd4;" horiz-adv-x="1548" 
d="M285 680q0 -569 490 -569q244 0 367.5 154.5t123.5 406.5t-124 403.5t-374 151.5q-483 0 -483 -547zM1258 1163q176 -199 176 -489t-178 -494.5t-493 -204.5t-481.5 197t-166.5 493t177 496.5t483 200.5q307 0 483 -199zM803 1724l225 -202l6 -15l-12 -41l-14 -6
l-213 127l-213 -127l-15 6l-12 41l6 15l225 202h17z" />
    <glyph glyph-name="Otilde" unicode="&#xd5;" horiz-adv-x="1548" 
d="M285 680q0 -569 490 -569q244 0 367.5 154.5t123.5 406.5t-124 403.5t-374 151.5q-483 0 -483 -547zM1258 1163q176 -199 176 -489t-178 -494.5t-493 -204.5t-481.5 197t-166.5 493t177 496.5t483 200.5q307 0 483 -199zM1096 1704q-32 -158 -200 -158q-62 0 -147 14.5
t-143 14.5t-79 -13.5t-42 -37.5l-26 16q46 156 186 156q86 0 160 -14.5t121 -14.5t81.5 8t63.5 45z" />
    <glyph glyph-name="Odieresis" unicode="&#xd6;" horiz-adv-x="1548" 
d="M285 680q0 -569 490 -569q244 0 367.5 154.5t123.5 406.5t-124 403.5t-374 151.5q-483 0 -483 -547zM1258 1163q176 -199 176 -489t-178 -494.5t-493 -204.5t-481.5 197t-166.5 493t177 496.5t483 200.5q307 0 483 -199zM852 1625q0 38 24.5 65.5t59.5 27.5t60.5 -27.5
t25.5 -65.5t-25.5 -63.5t-60.5 -25.5t-59.5 25.5t-24.5 63.5zM530 1625q0 38 25 65.5t59.5 27.5t60 -27.5t25.5 -65.5t-25.5 -63.5t-60 -25.5t-59.5 25.5t-25 63.5z" />
    <glyph glyph-name="multiply" unicode="&#xd7;" horiz-adv-x="937" 
d="M467 414l-246 -248l-76 76l246 247l-246 246l76 76l246 -246l250 248l76 -76l-250 -248l250 -249l-76 -76z" />
    <glyph glyph-name="Oslash" unicode="&#xd8;" horiz-adv-x="1548" 
d="M796 1227q-156 0 -332.5 -76.5t-176.5 -458.5q0 -241 82 -379l700 832q-117 82 -273 82zM766 111q256 0 379 155t123 397q0 243 -105 390l-708 -844q116 -98 311 -98zM266 190q-149 184 -149 478t177 494t482 200q225 0 381 -111l133 156l105 -80l-138 -164
q179 -195 179 -487t-178 -496.5t-496 -204.5q-239 0 -402 123l-143 -170l-98 88z" />
    <glyph glyph-name="Ugrave" unicode="&#xd9;" horiz-adv-x="1409" 
d="M342 524q0 -221 97.5 -317t269.5 -96t270 96t98 317v828h144v-897q0 -212 -131 -345t-392 -133t-385.5 131t-124.5 347v897h154v-828zM453 1671q0 25 18 44.5t53 21.5l371 -205l4 -14l-10 -41l-17 -7l-411 158q-8 18 -8 43z" />
    <glyph glyph-name="Uacute" unicode="&#xda;" horiz-adv-x="1409" 
d="M342 524q0 -221 97.5 -317t269.5 -96t270 96t98 317v828h144v-897q0 -212 -131 -345t-392 -133t-385.5 131t-124.5 347v897h154v-828zM958 1672q0 -24 -8 -44l-411 -158l-17 7l-12 41l6 14l371 205q35 -2 53 -21.5t18 -43.5z" />
    <glyph glyph-name="Ucircumflex" unicode="&#xdb;" horiz-adv-x="1409" 
d="M342 524q0 -221 97.5 -317t269.5 -96t270 96t98 317v828h144v-897q0 -212 -131 -345t-392 -133t-385.5 131t-124.5 347v897h154v-828zM705 1724l227 -202l4 -15l-10 -41l-17 -6l-211 127l-213 -127l-16 6l-10 41l4 15l227 202h15z" />
    <glyph glyph-name="Udieresis" unicode="&#xdc;" horiz-adv-x="1409" 
d="M342 524q0 -221 97.5 -317t269.5 -96t270 96t98 317v828h144v-897q0 -212 -131 -345t-392 -133t-385.5 131t-124.5 347v897h154v-828zM805 1625q0 38 24.5 65.5t59.5 27.5t60.5 -27.5t25.5 -65.5t-25.5 -63.5t-60.5 -25.5t-59.5 25.5t-24.5 63.5zM483 1625
q0 38 24.5 65.5t59.5 27.5t60.5 -27.5t25.5 -65.5t-25.5 -63.5t-60.5 -25.5t-59.5 25.5t-24.5 63.5z" />
    <glyph glyph-name="Yacute" unicode="&#xdd;" horiz-adv-x="1159" 
d="M657 0h-153v547l-527 805h183l428 -650l413 650h179l-523 -797v-555zM887 1672q0 -24 -6 -44l-414 -158l-16 7l-11 41l6 14l369 205q35 -2 53.5 -21.5t18.5 -43.5z" />
    <glyph glyph-name="Thorn" unicode="&#xde;" horiz-adv-x="1062" 
d="M807 698q0 263 -291 263q-72 0 -170 -5v-530q78 -8 152 -8q160 0 234.5 68.5t74.5 211.5zM496 1096q221 0 351 -105.5t130 -304.5q0 -283 -172 -343t-285 -60t-174 6v-289h-143v1352h143v-260q82 4 150 4z" />
    <glyph glyph-name="germandbls" unicode="&#xdf;" horiz-adv-x="1114" 
d="M303 0h-143v995q0 236 97.5 374t281.5 138q145 0 238 -82.5t93 -193.5q0 -70 -32.5 -128.5t-71.5 -110.5t-71.5 -100t-32.5 -92t28.5 -76t71.5 -62.5t164 -112t121 -266.5q0 -150 -98.5 -229t-216.5 -79t-214 91l41 145q31 -61 84 -95t111 -34t99.5 44t41.5 125
t-27.5 130t-68.5 85t-88 65.5t-116 86.5t-69 166q0 72 30 127.5t65.5 104.5t65.5 98t30 111t-46.5 109.5t-130.5 47.5t-128.5 -32.5t-76.5 -101t-32 -253.5v-995z" />
    <glyph glyph-name="agrave" unicode="&#xe0;" horiz-adv-x="1019" 
d="M400 96q79 0 173.5 53.5t153.5 153.5v191h-18q-215 0 -302.5 -31t-130.5 -77t-43 -126t44 -122t123 -42zM479 973q391 0 391 -332v-641h-112l-17 168h-8q-52 -80 -159 -136.5t-232 -56.5t-192.5 79t-67.5 197t59.5 187.5t170 114.5t323.5 45h92v25q0 78 -40 153.5
t-235 75.5q-130 0 -268 -82l-32 123q137 80 327 80zM215 1326q0 24 18.5 44.5t53.5 22.5l368 -207l7 -15l-11 -41l-16 -6l-414 158q-6 20 -6 44z" />
    <glyph glyph-name="aacute" unicode="&#xe1;" horiz-adv-x="1019" 
d="M400 96q79 0 173.5 53.5t153.5 153.5v191h-18q-215 0 -302.5 -31t-130.5 -77t-43 -126t44 -122t123 -42zM479 973q391 0 391 -332v-641h-112l-17 168h-8q-52 -80 -159 -136.5t-232 -56.5t-192.5 79t-67.5 197t59.5 187.5t170 114.5t323.5 45h92v25q0 78 -40 153.5
t-235 75.5q-130 0 -268 -82l-32 123q137 80 327 80zM815 1326q0 -24 -8 -44l-414 -158l-14 6l-12 41l6 15l368 207q35 -2 54.5 -22.5t19.5 -44.5z" />
    <glyph glyph-name="acircumflex" unicode="&#xe2;" horiz-adv-x="1019" 
d="M400 96q79 0 173.5 53.5t153.5 153.5v191h-18q-215 0 -302.5 -31t-130.5 -77t-43 -126t44 -122t123 -42zM479 973q391 0 391 -332v-641h-112l-17 168h-8q-52 -80 -159 -136.5t-232 -56.5t-192.5 79t-67.5 197t59.5 187.5t170 114.5t323.5 45h92v25q0 78 -40 153.5
t-235 75.5q-130 0 -268 -82l-32 123q137 80 327 80zM500 1378l225 -202l6 -15l-12 -39l-14 -6l-213 125l-211 -125l-17 6l-12 39l6 15l225 202h17z" />
    <glyph glyph-name="atilde" unicode="&#xe3;" horiz-adv-x="1019" 
d="M400 96q79 0 173.5 53.5t153.5 153.5v191h-18q-215 0 -302.5 -31t-130.5 -77t-43 -126t44 -122t123 -42zM479 973q391 0 391 -332v-641h-112l-17 168h-8q-52 -80 -159 -136.5t-232 -56.5t-192.5 79t-67.5 197t59.5 187.5t170 114.5t323.5 45h92v25q0 78 -40 153.5
t-235 75.5q-130 0 -268 -82l-32 123q137 80 327 80zM357 1350q65 0 146 -9.5t143 -9.5t97 8.5t64 44.5l24 -16q0 -6 -10 -31.5t-49 -76t-121 -50.5l-329 19q-51 0 -72 -13.5t-41 -37.5l-27 16q0 42 55 99t120 57z" />
    <glyph glyph-name="adieresis" unicode="&#xe4;" horiz-adv-x="1019" 
d="M400 96q79 0 173.5 53.5t153.5 153.5v191h-18q-215 0 -302.5 -31t-130.5 -77t-43 -126t44 -122t123 -42zM479 973q391 0 391 -332v-641h-112l-17 168h-8q-52 -80 -159 -136.5t-232 -56.5t-192.5 79t-67.5 197t59.5 187.5t170 114.5t323.5 45h92v25q0 78 -40 153.5
t-235 75.5q-130 0 -268 -82l-32 123q137 80 327 80zM588 1281q0 38 23.5 65.5t58.5 27.5t60.5 -27.5t25.5 -65.5t-25.5 -63.5t-60.5 -25.5t-58.5 25.5t-23.5 63.5zM266 1281q0 38 24.5 65.5t58.5 27.5t59.5 -27.5t25.5 -65.5t-25.5 -63.5t-59.5 -25.5t-58.5 25.5t-24.5 63.5
z" />
    <glyph glyph-name="aring" unicode="&#xe5;" horiz-adv-x="1019" 
d="M400 96q79 0 173.5 53.5t153.5 153.5v191h-18q-215 0 -302.5 -31t-130.5 -77t-43 -126t44 -122t123 -42zM479 973q391 0 391 -332v-641h-112l-17 168h-8q-52 -80 -159 -136.5t-232 -56.5t-192.5 79t-67.5 197t59.5 187.5t170 114.5t323.5 45h92v25q0 78 -40 153.5
t-235 75.5q-130 0 -268 -82l-32 123q137 80 327 80zM522 1151q41 0 65.5 29.5t24.5 65.5t-25.5 70t-68.5 34t-66.5 -32t-23.5 -68t26.5 -67.5t67.5 -31.5zM521 1399q79 0 124 -47.5t45 -103.5t-43 -101t-124 -45t-126 45t-45 102t45 103.5t124 46.5z" />
    <glyph glyph-name="ae" unicode="&#xe6;" horiz-adv-x="1677" 
d="M1446 622v25q0 100 -73.5 155.5t-192.5 55.5t-194 -70.5t-101 -177.5h559q2 10 2 12zM400 96q79 0 173.5 53.5t153.5 153.5v191h-18q-215 0 -302.5 -31t-130.5 -77t-43 -126t44 -122t123 -42zM786 180q-149 -205 -443 -205q-126 0 -193.5 79t-67.5 197t59.5 187.5
t170 114.5t323.5 45h92v25q0 78 -40 153.5t-235 75.5q-130 0 -268 -82l-32 123q137 80 343 80t263 -66.5t67 -95.5h9q59 70 155 116t213 46q180 0 278.5 -91t98.5 -257q0 -94 -18 -123h-691v-37q7 -260 128.5 -320.5t212.5 -60.5t178.5 35t144.5 76l27 -109
q-187 -111 -373 -111q-137 0 -235.5 56.5t-157.5 148.5h-9z" />
    <glyph glyph-name="ccedilla" unicode="&#xe7;" horiz-adv-x="1024" 
d="M548 -166q-46 0 -97 -14l-17 22l88 135q-201 15 -311.5 158.5t-110.5 349.5t121.5 347t366.5 141q98 0 192 -22.5t152 -59.5l-35 -121q-47 35 -135 62.5t-177 27.5q-165 0 -249 -105t-84 -270t93 -281t255 -116q82 0 167 32t142 85l33 -127q-53 -35 -146.5 -66.5
t-199.5 -36.5l-49 -79q36 8 67 8q72 0 117 -42t45 -92t-16.5 -80t-64 -68t-140.5 -38t-188 39l-2 12l26 48h15q62 -25 141 -25q108 0 108 82q0 55 -30.5 74.5t-76.5 19.5z" />
    <glyph glyph-name="egrave" unicode="&#xe8;" horiz-adv-x="1056" 
d="M283 1326q0 24 18 44.5t53 22.5l369 -207l6 -15l-10 -41l-17 -6l-413 158q-6 20 -6 44zM825 622v25q0 100 -72.5 155.5t-192.5 55.5t-194.5 -70.5t-101.5 -177.5h559q2 10 2 12zM567 -25q-223 0 -347 145.5t-124 353.5t129 353.5t357 145.5q180 0 278 -91t98 -257
q0 -94 -18 -123h-690v-21q0 -166 86 -281.5t248 -115.5q98 0 185 35t144 76l27 -109q-187 -111 -373 -111z" />
    <glyph glyph-name="eacute" unicode="&#xe9;" horiz-adv-x="1056" 
d="M823.5 1370.5q18.5 -20.5 18.5 -46.5t-6 -42l-414 -158l-14 6l-13 41l6 15l369 207q35 -2 53.5 -22.5zM825 622v25q0 100 -72.5 155.5t-192.5 55.5t-194.5 -70.5t-101.5 -177.5h559q2 10 2 12zM567 -25q-223 0 -347 145.5t-124 353.5t129 353.5t357 145.5q180 0 278 -91
t98 -257q0 -94 -18 -123h-690v-21q0 -166 86 -281.5t248 -115.5q98 0 185 35t144 76l27 -109q-187 -111 -373 -111z" />
    <glyph glyph-name="ecircumflex" unicode="&#xea;" horiz-adv-x="1056" 
d="M563 1378l228 -202l4 -15l-11 -39l-16 -6l-211 125l-213 -125l-16 6l-11 39l5 15l227 202h14zM825 622v25q0 100 -72.5 155.5t-192.5 55.5t-194.5 -70.5t-101.5 -177.5h559q2 10 2 12zM567 -25q-223 0 -347 145.5t-124 353.5t129 353.5t357 145.5q180 0 278 -91t98 -257
q0 -94 -18 -123h-690v-21q0 -166 86 -281.5t248 -115.5q98 0 185 35t144 76l27 -109q-187 -111 -373 -111z" />
    <glyph glyph-name="edieresis" unicode="&#xeb;" horiz-adv-x="1056" 
d="M305 1281q0 38 24.5 65.5t59.5 27.5t60.5 -27.5t25.5 -65.5t-25.5 -63.5t-60.5 -25.5t-59.5 25.5t-24.5 63.5zM627 1281q0 38 24.5 65.5t59 27.5t60.5 -27.5t26 -65.5t-26 -63.5t-60.5 -25.5t-59 25.5t-24.5 63.5zM825 622v25q0 100 -72.5 155.5t-192.5 55.5
t-194.5 -70.5t-101.5 -177.5h559q2 10 2 12zM567 -25q-223 0 -347 145.5t-124 353.5t129 353.5t357 145.5q180 0 278 -91t98 -257q0 -94 -18 -123h-690v-21q0 -166 86 -281.5t248 -115.5q98 0 185 35t144 76l27 -109q-187 -111 -373 -111z" />
    <glyph glyph-name="igrave" unicode="&#xec;" horiz-adv-x="462" 
d="M303 0h-143v942h143v-942zM350 1124l-411 158q-23 52 2.5 80.5t60.5 30.5l371 -207l6 -15l-12 -41z" />
    <glyph glyph-name="iacute" unicode="&#xed;" horiz-adv-x="462" 
d="M303 0h-143v942h143v-942zM479 1326q0 -24 -8 -44l-414 -158l-14 6l-12 41l6 15l369 207q35 -2 54 -22.5t19 -44.5z" />
    <glyph glyph-name="icircumflex" unicode="&#xee;" horiz-adv-x="462" 
d="M303 0h-143v942h143v-942zM233 1378l226 -202l6 -15l-12 -39l-15 -6l-213 125l-211 -125l-16 6l-12 39l6 15l225 202h16z" />
    <glyph glyph-name="idieresis" unicode="&#xef;" horiz-adv-x="462" 
d="M303 0h-143v942h143v-942zM305 1281q0 38 24.5 65.5t59.5 27.5t60.5 -27.5t25.5 -65.5t-25.5 -63.5t-60.5 -25.5t-59.5 25.5t-24.5 63.5zM-16 1281q0 38 24.5 65.5t59 27.5t60.5 -27.5t26 -65.5t-26 -63.5t-60.5 -25.5t-59 25.5t-24.5 63.5z" />
    <glyph glyph-name="eth" unicode="&#xf0;" horiz-adv-x="1155" 
d="M895 496q0 177 -91 270.5t-246 93.5t-230.5 -109t-75.5 -272q0 -162 81 -278.5t237.5 -116.5t240.5 117.5t84 294.5zM1040 592q0 -428 -166 -522.5t-298 -94.5q-246 0 -362 149.5t-116 359.5q0 209 120.5 349t364.5 140q245 0 322 -162l6 2q-60 254 -123 387l-256 -65
l-34 94l241 63q-64 102 -184 224h150q82 -74 151 -193l240 63l37 -98l-230 -59q137 -294 137 -637z" />
    <glyph glyph-name="ntilde" unicode="&#xf1;" horiz-adv-x="1116" 
d="M821 0v623q0 125 -55.5 177t-123.5 52q-124 0 -213 -65t-126 -183v-604h-143v942h112l17 -176h8q27 86 119 146.5t229 60.5q222 0 271 -120t49 -212v-641h-144zM883 1358q-33 -158 -201 -158q-62 0 -147 14.5t-143 14.5t-78.5 -13.5t-41.5 -37.5l-26 16q46 156 186 156
q78 0 157.5 -14.5t125.5 -14.5q45 0 79.5 8t63.5 45z" />
    <glyph glyph-name="ograve" unicode="&#xf2;" horiz-adv-x="1148" 
d="M817.5 191.5q81.5 107.5 81.5 273.5q0 167 -85 280t-244 113t-239.5 -106.5t-80.5 -272.5t83.5 -280.5t242.5 -114.5q160 0 241.5 107.5zM932.5 113q-118.5 -138 -353.5 -138t-358 144t-123 356.5t121 355t356 142.5t355.5 -146.5t120.5 -361t-118.5 -352.5zM279 1325
q0 25 18 45.5t53 22.5l371 -207l6 -15l-12 -41l-15 -6l-413 158q-8 18 -8 43z" />
    <glyph glyph-name="oacute" unicode="&#xf3;" horiz-adv-x="1148" 
d="M817.5 191.5q81.5 107.5 81.5 273.5q0 167 -85 280t-244 113t-239.5 -106.5t-80.5 -272.5t83.5 -280.5t242.5 -114.5q160 0 241.5 107.5zM932.5 113q-118.5 -138 -353.5 -138t-358 144t-123 356.5t121 355t356 142.5t355.5 -146.5t120.5 -361t-118.5 -352.5zM858 1326
q0 -24 -8 -44l-414 -158l-14 6l-12 41l6 15l368 207q35 -2 54.5 -22.5t19.5 -44.5z" />
    <glyph glyph-name="ocircumflex" unicode="&#xf4;" horiz-adv-x="1148" 
d="M817.5 191.5q81.5 107.5 81.5 273.5q0 167 -85 280t-244 113t-239.5 -106.5t-80.5 -272.5t83.5 -280.5t242.5 -114.5q160 0 241.5 107.5zM932.5 113q-118.5 -138 -353.5 -138t-358 144t-123 356.5t121 355t356 142.5t355.5 -146.5t120.5 -361t-118.5 -352.5zM598 1378
l225 -202l6 -15l-10 -39l-16 -6l-213 125l-211 -125l-17 6l-12 39l6 15l228 202h14z" />
    <glyph glyph-name="otilde" unicode="&#xf5;" horiz-adv-x="1148" 
d="M817.5 191.5q81.5 107.5 81.5 273.5q0 167 -85 280t-244 113t-239.5 -106.5t-80.5 -272.5t83.5 -280.5t242.5 -114.5q160 0 241.5 107.5zM932.5 113q-118.5 -138 -353.5 -138t-358 144t-123 356.5t121 355t356 142.5t355.5 -146.5t120.5 -361t-118.5 -352.5zM424 1350
q78 0 156.5 -14.5t125.5 -14.5q46 0 80.5 8t63.5 45l24 -16q-22 -104 -80 -131t-120 -27t-147 14.5t-143 14.5t-78.5 -13.5t-41.5 -37.5l-26 16q46 156 186 156z" />
    <glyph glyph-name="odieresis" unicode="&#xf6;" horiz-adv-x="1148" 
d="M817.5 191.5q81.5 107.5 81.5 273.5q0 167 -85 280t-244 113t-239.5 -106.5t-80.5 -272.5t83.5 -280.5t242.5 -114.5q160 0 241.5 107.5zM932.5 113q-118.5 -138 -353.5 -138t-358 144t-123 356.5t121 355t356 142.5t355.5 -146.5t120.5 -361t-118.5 -352.5zM651 1281
q0 38 24.5 65.5t59.5 27.5t60.5 -27.5t25.5 -65.5t-25.5 -63.5t-60.5 -25.5t-59.5 25.5t-24.5 63.5zM330 1281q0 38 24.5 65.5t59.5 27.5t60.5 -27.5t25.5 -65.5t-25.5 -63.5t-60.5 -25.5t-59.5 25.5t-24.5 63.5z" />
    <glyph glyph-name="divide" unicode="&#xf7;" horiz-adv-x="1159" 
d="M508 813q0 39 27.5 68.5t66.5 29.5t68.5 -29.5t29.5 -68.5t-29.5 -66.5t-68.5 -27.5t-66.5 27.5t-27.5 66.5zM508 163q0 40 27.5 68.5t66.5 28.5t68.5 -28.5t29.5 -68.5t-29.5 -67.5t-68.5 -27.5t-66.5 27.5t-27.5 67.5zM1006 543v-107h-848v107h848z" />
    <glyph glyph-name="oslash" unicode="&#xf8;" horiz-adv-x="1148" 
d="M307.5 721q-57.5 -76 -57.5 -223q0 -148 47 -240l469 535q-82 65 -182 65q-101 0 -160 -30.5t-116.5 -106.5zM560 84q102 0 162 30.5t118.5 107.5t58.5 222q0 146 -49 244l-471 -536q79 -68 181 -68zM199 145q-101 135 -101 339t121 346.5t354 142.5q166 0 281 -80
l104 119l105 -80l-115 -129q103 -136 103 -344t-118.5 -346t-350.5 -138q-174 0 -289 80l-111 -127l-98 88z" />
    <glyph glyph-name="ugrave" unicode="&#xf9;" horiz-adv-x="1114" 
d="M293 319q0 -223 196 -223q171 0 237.5 91.5t84.5 150.5v604h143v-942h-112l-17 176h-8q-27 -86 -119 -143.5t-229 -57.5q-224 0 -271.5 117t-47.5 209v641h143v-623zM262 1325q0 25 18.5 45.5t53.5 22.5l368 -207l7 -15l-11 -41l-16 -6l-412 158q-8 18 -8 43z" />
    <glyph glyph-name="uacute" unicode="&#xfa;" horiz-adv-x="1114" 
d="M293 319q0 -223 196 -223q171 0 237.5 91.5t84.5 150.5v604h143v-942h-112l-17 176h-8q-27 -86 -119 -143.5t-229 -57.5q-224 0 -271.5 117t-47.5 209v641h143v-623zM786 1326q0 -24 -6 -44l-413 -158l-17 6l-10 41l6 15l369 207q35 -2 53 -22.5t18 -44.5z" />
    <glyph glyph-name="ucircumflex" unicode="&#xfb;" horiz-adv-x="1114" 
d="M293 319q0 -223 196 -223q171 0 237.5 91.5t84.5 150.5v604h143v-942h-112l-17 176h-8q-27 -86 -119 -143.5t-229 -57.5q-224 0 -271.5 117t-47.5 209v641h143v-623zM553 1378l227 -202l4 -15l-10 -39l-16 -6l-213 125l-211 -125l-17 6l-10 39l4 15l228 202h14z" />
    <glyph glyph-name="udieresis" unicode="&#xfc;" horiz-adv-x="1114" 
d="M293 319q0 -223 196 -223q171 0 237.5 91.5t84.5 150.5v604h143v-942h-112l-17 176h-8q-27 -86 -119 -143.5t-229 -57.5q-224 0 -271.5 117t-47.5 209v641h143v-623zM621 1281q0 38 24.5 65.5t59 27.5t60.5 -27.5t26 -65.5t-26 -63.5t-60.5 -25.5t-59 25.5t-24.5 63.5z
M299 1281q0 38 24.5 65.5t59.5 27.5t60.5 -27.5t25.5 -65.5t-25.5 -63.5t-60.5 -25.5t-59.5 25.5t-24.5 63.5z" />
    <glyph glyph-name="yacute" unicode="&#xfd;" horiz-adv-x="1062" 
d="M92 -389q83 0 147 46q126 91 228 374l-471 911h170l375 -784l336 784h161l-432 -950q-31 -66 -74 -155t-143.5 -225t-277.5 -136q-28 0 -43 6l-27 135q18 -6 51 -6zM819.5 1370.5q18.5 -20.5 18.5 -47.5t-7 -41l-413 -158l-15 6l-12 41l6 15l369 207q35 -2 53.5 -22.5z
" />
    <glyph glyph-name="thorn" unicode="&#xfe;" horiz-adv-x="1177" 
d="M619 852q-88 0 -173.5 -53.5t-142.5 -153.5v-301q34 -110 130 -179t188 -69t145 29t107.5 106t54.5 238q0 257 -110.5 320t-198.5 63zM685 973q85 0 163 -41t154.5 -142.5t76.5 -312.5q0 -212 -114.5 -357t-321.5 -145q-137 0 -225 59.5t-115 147.5v-714h-143v2048h143
v-750q44 77 144 142t238 65z" />
    <glyph glyph-name="ydieresis" unicode="&#xff;" horiz-adv-x="1062" 
d="M92 -389q83 0 147 46q126 91 228 374l-471 911h170l375 -784l336 784h161l-432 -950q-31 -66 -74 -155t-143.5 -225t-277.5 -136q-28 0 -43 6l-27 135q18 -6 51 -6zM594 1281q0 38 24.5 65.5t59.5 27.5t60.5 -27.5t25.5 -65.5t-25.5 -63.5t-60.5 -25.5t-59.5 25.5
t-24.5 63.5zM272 1281q0 38 25 65.5t59.5 27.5t60 -27.5t25.5 -65.5t-25.5 -63.5t-60 -25.5t-59.5 25.5t-25 63.5z" />
    <glyph glyph-name="Dcroat" unicode="&#x110;" horiz-adv-x="1445" 
d="M631 1227q-172 0 -271 -6v-463h359v-90h-359v-545q129 -12 310 -12q489 0 489 567q0 264 -84 366.5t-178 142.5t-266 40zM640 -25q-204 0 -433 25v668h-178v90h178v594h10q245 10 413 10q312 0 492 -154q207 -186 207 -546q0 -297 -119.5 -436.5t-242.5 -195t-327 -55.5z
" />
    <glyph glyph-name="dotlessi" unicode="&#x131;" horiz-adv-x="462" 
d="M303 0h-143v942h143v-942z" />
    <glyph glyph-name="IJ" unicode="&#x132;" horiz-adv-x="1118" 
d="M918 207q0 -227 -91.5 -376.5t-265.5 -149.5l-29 112q204 0 218 173t14 243v1143h154v-1145zM356 0h-153v1352h153v-1352z" />
    <glyph glyph-name="ij" unicode="&#x133;" horiz-adv-x="929" 
d="M596 1285q0 42 29.5 75t71.5 33t75 -33t33 -75t-33 -71.5t-75 -29.5t-71.5 29.5t-29.5 71.5zM770 -6q0 -224 -81.5 -373t-231.5 -149q-33 0 -45 6l-33 119q11 -7 63 -7t92.5 40t66.5 115.5t26 250.5v946h143v-948zM129 1285q0 42 29.5 75t71.5 33t75 -33t33 -75
t-33 -71.5t-75 -29.5t-71.5 29.5t-29.5 71.5zM303 0h-143v942h143v-942z" />
    <glyph glyph-name="kgreenlandic" unicode="&#x138;" horiz-adv-x="970" 
d="M303 0h-143v942h143v-397l414 397h164l-336 -332l401 -610h-164l-338 512l-141 -141v-371z" />
    <glyph glyph-name="OE" unicode="&#x152;" horiz-adv-x="1748" 
d="M764 111q86 0 158 18v1079q-72 18 -178 18t-282.5 -76t-176.5 -485q0 -268 123 -411t356 -143zM774 1362q61 0 148 -10h702v-144h-549v-420h412v-143h-412v-502h590v-143h-709q-90 -25 -225 -25t-256 55.5t-240.5 197t-119.5 437.5t177 496.5t482 200.5z" />
    <glyph glyph-name="oe" unicode="&#x153;" horiz-adv-x="1867" 
d="M1636 620v25q0 100 -72.5 155.5t-192.5 55.5t-194.5 -70.5t-101.5 -177.5h559q2 10 2 12zM780.5 142q118.5 60 118.5 321q0 167 -85 280t-244 113t-239.5 -106.5t-80.5 -271.5q0 -166 83 -281t245 -115q84 0 202.5 60zM977 752q133 219 433 219q164 0 261.5 -91.5
t97.5 -256.5q0 -94 -18 -123h-690v-21q0 -166 85.5 -281.5t248.5 -115.5q98 0 185 35t144 76l27 -109q-187 -111 -373 -111q-139 0 -240.5 57.5t-158.5 151.5q-118 -209 -397 -209q-238 0 -361 144t-123 356.5t121 355t354 142.5q281 0 404 -219z" />
    <glyph glyph-name="Scaron" unicode="&#x160;" horiz-adv-x="1128" 
d="M517 111q360 0 360 221q0 171 -147.5 226.5t-222.5 80.5q-187 62 -280.5 145.5t-93.5 245.5t119.5 247t327.5 85t376 -78l-43 -158q-115 101 -352 101q-278 0 -278 -201q0 -94 66 -136t209 -90q143 -49 216.5 -80.5t166.5 -104.5t93 -261t-138.5 -283.5t-365.5 -95.5
q-228 0 -430 113l43 150q96 -66 180 -96.5t194 -30.5zM561 1460l-227 203l-4 14l10 41l16 6l211 -127l213 127l17 -6l10 -41l-4 -14l-228 -203h-14z" />
    <glyph glyph-name="scaron" unicode="&#x161;" horiz-adv-x="903" 
d="M133 211q140 -129 341 -129q87 0 140.5 50t53.5 107t-26.5 102t-117.5 67l-196 49q-224 53 -224 241q0 125 93.5 200t248.5 75q80 0 172.5 -21.5t155.5 -62.5l-39 -123q-41 35 -122 63.5t-178 28.5t-141 -36t-44 -93t36 -96.5t120 -57.5l145 -32q150 -31 208 -105
t58 -148q0 -143 -102 -229t-271 -86q-109 0 -200.5 32t-147.5 71zM434 1116l-227 203l-4 12l10 41l16 6l211 -127l213 127l17 -6l10 -41l-4 -12l-227 -203h-15z" />
    <glyph glyph-name="Ydieresis" unicode="&#x178;" horiz-adv-x="1159" 
d="M657 0h-153v547l-527 805h183l428 -650l413 650h179l-523 -797v-555zM664 1625q0 38 23.5 65.5t58 27.5t60 -27.5t25.5 -65.5t-25.5 -63.5t-60 -25.5t-58 25.5t-23.5 63.5zM342 1625q0 38 24.5 65.5t58.5 27.5t59.5 -27.5t25.5 -65.5t-25.5 -63.5t-59.5 -25.5t-58.5 25.5
t-24.5 63.5z" />
    <glyph glyph-name="Zcaron" unicode="&#x17d;" horiz-adv-x="1134" 
d="M1047 0h-959v143l754 1065h-723v144h897v-144l-754 -1065h785v-143zM553 1460l-225 203l-6 14l12 41l16 6l211 -127l213 127l14 -6l13 -41l-6 -14l-226 -203h-16z" />
    <glyph glyph-name="zcaron" unicode="&#x17e;" horiz-adv-x="854" 
d="M106 821v121h644v-119l-502 -702h522v-121h-684v123l498 698h-478zM410 1116l-226 203l-6 12l12 41l15 6l213 -127l213 127l14 -6l12 -41l-6 -12l-225 -203h-16z" />
    <glyph glyph-name="florin" unicode="&#x192;" horiz-adv-x="1247" 
d="M967 1419q-39 0 -66 -11t-57 -60.5t-76 -270.5l-29 -135h219v-96h-239l-174 -852q-50 -224 -166.5 -373t-267.5 -149q-37 0 -43 6l-9 119q13 -7 63 -7t100 38t96.5 118t80.5 254l174 846h-137v76l158 20l39 184q72 332 195.5 366t156.5 34q149 0 213 -35l-61 -129
q-57 57 -170 57z" />
    <glyph glyph-name="schwa" unicode="&#x259;" horiz-adv-x="1058" 
d="M233 286q0 -38 41.5 -117t223.5 -79q118 0 193 69.5t102 178.5h-557q-3 -14 -3 -52zM838 829q125 -144 125 -353q0 -208 -128.5 -354.5t-357.5 -146.5q-180 0 -278.5 91.5t-98.5 257.5q0 92 19 122h690v21q0 166 -85.5 281.5t-248.5 115.5q-126 0 -214.5 -49t-117.5 -70
l-24 117q187 111 390 111q204 0 329 -144z" />
    <glyph glyph-name="circumflex" unicode="&#x2c6;" horiz-adv-x="479" 
d="M248 1378l225 -202l6 -15l-12 -39l-14 -6l-213 125l-213 -125l-15 6l-12 39l6 15l225 202h17z" />
    <glyph glyph-name="caron" unicode="&#x2c7;" horiz-adv-x="479" 
d="M231 1116l-225 203l-6 12l12 41l15 6l213 -127l213 127l14 -6l12 -41l-6 -12l-225 -203h-17z" />
    <glyph glyph-name="ring" unicode="&#x2da;" horiz-adv-x="335" 
d="M170 1151q41 0 64.5 29.5t23.5 65.5t-25.5 70t-68.5 34t-65.5 -32t-22.5 -68t26.5 -67.5t67.5 -31.5zM168 1399q80 0 124 -47.5t44 -103.5t-42 -101t-124 -45t-126 44t-44 102t44 104.5t124 46.5z" />
    <glyph glyph-name="tilde" unicode="&#x2dc;" horiz-adv-x="636" 
d="M637 1358q-33 -158 -199 -158q-62 0 -148 14.5t-144 14.5t-78.5 -13.5t-40.5 -37.5l-27 16q46 156 186 156q78 0 157 -14.5t125 -14.5t81 8t63 45z" />
    <glyph glyph-name="uni03BC" unicode="&#x3bc;" horiz-adv-x="1130" 
d="M480 -25q-143 0 -222 72l-6 -27q-35 -152 -111 -307l-131 60q82 155 119 275.5t37 252.5v641h143v-623q0 -223 197 -223q170 0 236.5 91.5t84.5 150.5v604h144v-942h-113l-16 176h-8q-27 -86 -119 -143.5t-235 -57.5z" />
    <glyph glyph-name="endash" unicode="&#x2013;" horiz-adv-x="1150" 
d="M999 543v-107h-847v107h847z" />
    <glyph glyph-name="emdash" unicode="&#x2014;" horiz-adv-x="1617" 
d="M1466 543v-107h-1314v107h1314z" />
    <glyph glyph-name="quoteleft" unicode="&#x2018;" horiz-adv-x="460" 
d="M311 1315v-185h-161v216l149 157l41 -39l-80 -149h51z" />
    <glyph glyph-name="quoteright" unicode="&#x2019;" horiz-adv-x="419" 
d="M156 1319v184h161v-215l-149 -158l-41 39l80 150h-51z" />
    <glyph glyph-name="quotesinglbase" unicode="&#x201a;" horiz-adv-x="497" 
d="M168 -10v184h162v-215l-150 -158l-41 39l80 150h-51z" />
    <glyph glyph-name="quotedblleft" unicode="&#x201c;" horiz-adv-x="768" 
d="M618 1315v-185h-161v216l149 157l41 -39l-80 -149h51zM311 1315v-185h-161v216l149 157l41 -39l-80 -149h51z" />
    <glyph glyph-name="quotedblright" unicode="&#x201d;" horiz-adv-x="727" 
d="M156 1319v184h161v-215l-149 -158l-41 39l80 150h-51zM463 1319v184h162v-215l-150 -158l-41 39l80 150h-51z" />
    <glyph glyph-name="quotedblbase" unicode="&#x201e;" horiz-adv-x="827" 
d="M498 -10v184h161v-215l-149 -158l-41 39l80 150h-51zM168 -10v184h162v-215l-150 -158l-41 39l80 150h-51z" />
    <glyph glyph-name="dagger" unicode="&#x2020;" horiz-adv-x="954" 
d="M410 889h-21l-315 -25v150l315 -25h21l-25 428h184l-24 -428h18l318 25v-150l-318 25h-18v-199l24 -467h-184l25 467v199z" />
    <glyph glyph-name="daggerdbl" unicode="&#x2021;" horiz-adv-x="1040" 
d="M453 381v508h-21l-315 -25v150l315 -25h21l-25 428h184l-24 -428h18l318 25v-150l-318 25h-18v-508h18l318 27v-152l-318 27h-18l24 -428h-184l23 428h-19l-315 -27v152l315 -27h21z" />
    <glyph glyph-name="bullet" unicode="&#x2022;" horiz-adv-x="671" 
d="M197 496q0 57 39.5 100t97.5 43t99.5 -43.5t41.5 -100.5q0 -56 -43 -95.5t-99 -39.5t-96 39.5t-40 96.5z" />
    <glyph glyph-name="ellipsis" unicode="&#x2026;" horiz-adv-x="1255" 
d="M920 72q0 39 27.5 68.5t66.5 29.5t68.5 -29.5t29.5 -68.5t-29.5 -67t-68.5 -28t-66.5 28t-27.5 67zM532 72q0 39 28 68.5t67 29.5t68.5 -29.5t29.5 -68.5t-29.5 -67t-68.5 -28t-67 28t-28 67zM145 72q0 39 27 68.5t67 29.5t69.5 -29.5t29.5 -68.5t-29.5 -67t-69.5 -28
t-67 28t-27 67z" />
    <glyph glyph-name="perthousand" unicode="&#x2030;" horiz-adv-x="2412" 
d="M2036 653q-183 0 -183 -280q0 -147 47.5 -221t139.5 -74t140 80t48 208t-47 207.5t-145 79.5zM2341 370q0 -157 -82.5 -270.5t-224.5 -113.5t-218.5 106.5t-76.5 270.5t81.5 273t220 109t219.5 -109t81 -266zM1298 653q-182 0 -182 -280q0 -147 47 -221t133 -74
q145 0 170 113.5t25 173.5q0 129 -47 208.5t-146 79.5zM1523 636q81 -109 81 -266t-82.5 -270.5t-224.5 -113.5t-219 106t-77 271t81.5 273.5t220.5 108.5t220 -109zM432 -49h-133l948 1464h133zM381 1270q-182 0 -182 -281q0 -147 47 -221t139 -74t140 80t48 208t-47 208
t-145 80zM604.5 1252.5q81.5 -109.5 81.5 -267.5t-83 -270.5t-224 -112.5t-218 106.5t-77 270.5t81.5 273.5t219.5 109.5t219.5 -109.5z" />
    <glyph glyph-name="guilsinglleft" unicode="&#x2039;" horiz-adv-x="659" 
d="M248 487l295 -362h-164l-273 362v11l275 362h162l-295 -362v-11z" />
    <glyph glyph-name="guilsinglright" unicode="&#x203a;" horiz-adv-x="659" 
d="M412 498l-295 362h162l274 -362v-11l-272 -362h-164l295 362v11z" />
    <glyph glyph-name="fraction" unicode="&#x2044;" horiz-adv-x="1042" 
d="M115 -49h-133l948 1464h133z" />
    <glyph glyph-name="zerosuperior" unicode="&#x2070;" horiz-adv-x="833" 
d="M414 1270q-183 0 -183 -281q0 -147 47.5 -221t139.5 -74t140 80t48 208t-47 208t-145 80zM637.5 1252.5q81.5 -109.5 81.5 -267.5t-83 -270.5t-225 -112.5q-141 0 -217.5 107t-76.5 270q0 164 81.5 273.5t219.5 109.5t219.5 -109.5z" />
    <glyph glyph-name="foursuperior" unicode="&#x2074;" horiz-adv-x="677" 
d="M393 926v315l-203 -315h203zM559 840h-74v-228h-92v228h-307v86l301 436h98v-436h74v-86z" />
    <glyph glyph-name="zeroinferior" unicode="&#x2080;" horiz-adv-x="862" 
d="M428 657q-182 0 -182 -280q0 -147 47 -221t133 -74q145 0 170 113.5t25 173.5q0 129 -47.5 208.5t-145.5 79.5zM651.5 640.5q81.5 -109.5 81.5 -266.5t-82.5 -270.5t-224.5 -113.5t-218.5 107t-76.5 270q0 164 82 273.5t219.5 109.5t219 -109.5z" />
    <glyph glyph-name="oneinferior" unicode="&#x2081;" horiz-adv-x="526" 
d="M348 0h-110v586l-117 -58l-27 86l254 136v-750z" />
    <glyph glyph-name="twoinferior" unicode="&#x2082;" horiz-adv-x="724" 
d="M364 750q110 0 167 -55.5t57 -133.5t-32 -136t-82 -113.5t-112.5 -110t-123.5 -115.5h358v-86h-483v86q49 61 112.5 117.5t119.5 113t96 113.5t40 125t-41 90.5t-86 22.5t-99 -32t-89 -77l-23 90q111 101 221 101z" />
    <glyph glyph-name="threeinferior" unicode="&#x2083;" horiz-adv-x="733" 
d="M348 750q97 0 156 -49.5t59 -143.5q0 -45 -34.5 -83t-82.5 -60q156 -50 156 -185q0 -102 -72.5 -170.5t-216.5 -68.5q-72 0 -115.5 20.5t-91.5 57.5l25 82q43 -35 80 -56.5t117 -21.5t126 45t46 115t-40 105.5t-153 35.5h-24v69h30q148 0 148 125q0 45 -22.5 73
t-104.5 28t-156 -60l-22 80q95 62 192 62z" />
    <glyph glyph-name="fourinferior" unicode="&#x2084;" horiz-adv-x="679" 
d="M391 313v316l-203 -316h203zM557 227h-74v-227h-92v227h-307v86l301 437h98v-437h74v-86z" />
    <glyph glyph-name="Euro" unicode="&#x20ac;" horiz-adv-x="1275" 
d="M86 522v107h156v43q0 43 2 65h-158v107h172q41 233 183.5 375.5t365.5 142.5q92 0 188.5 -23.5t161.5 -64.5l-43 -148q-129 101 -319 101q-250 0 -305.5 -147.5t-67.5 -235.5h522v-107h-532v-108h532v-107h-524q53 -412 371 -411q111 0 201.5 36.5t148.5 90.5l41 -138
q-184 -125 -407 -125t-359 151.5t-166 395.5h-164z" />
    <glyph glyph-name="trademark" unicode="&#x2122;" horiz-adv-x="1415" 
d="M571 1257h-172v-501h-96v501h-172v80h440v-80zM725 756h-78v581h98l201 -495l199 495h96v-581h-80v428l-172 -428h-92l-172 430v-430z" />
    <glyph glyph-name="onethird" unicode="&#x2153;" horiz-adv-x="1456" 
d="M330 612h-111v586l-117 -57l-26 86l254 135v-750zM258 -49h-133l948 1464h133zM1118 750q97 0 156 -49.5t59 -143.5q0 -45 -34.5 -83t-81.5 -60q155 -50 155 -185q0 -102 -72.5 -170.5t-216.5 -68.5q-72 0 -115.5 20.5t-90.5 57.5l24 82q43 -35 80 -56.5t117 -21.5
t126 45t46 115t-40 105.5t-153 35.5h-24v69h30q148 0 148 125q0 45 -22.5 73t-104.5 28t-156 -60l-22 80q95 62 192 62z" />
    <glyph glyph-name="twothirds" unicode="&#x2154;" horiz-adv-x="1554" 
d="M1425 557q0 -45 -34.5 -83t-81.5 -60q155 -50 155 -185q0 -163 -106 -201t-180 -38t-118 20.5t-91 57.5l24 82q43 -35 80 -56.5t117 -21.5t126 45t46 115t-40 105.5t-153 35.5h-24v69h31q147 0 147 125q0 45 -22.5 73t-104.5 28t-156 -60l-22 80q94 62 192 62
q97 0 156 -49.5t59 -143.5zM401 -49h-133l949 1464h133zM343 1362q110 0 167 -55.5t57 -133.5t-31.5 -136t-82 -113.5t-112.5 -109.5t-124 -116h358v-86h-483v86q49 61 112.5 117.5t120 113t96.5 114t40 124.5t-41 90t-86 23t-99.5 -31.5t-89.5 -77.5l-22 91
q110 100 220 100z" />
    <glyph glyph-name="minus" unicode="&#x2212;" horiz-adv-x="1159" 
d="M1004 543v-107h-848v107h848z" />
    <glyph glyph-name="uni2215" unicode="&#x2215;" horiz-adv-x="1058" 
d="M123 -49h-133l948 1464h133z" />
    </font>
</defs>
</svg>
